# Blender 3.6.5
# www.blender.org
mtllib pgTest4.mtl
o Cube
v -5.147564 0.000000 6.870430
v -5.147564 7.745878 6.870430
v -5.147564 0.000000 -3.013246
v -5.147564 7.745878 -3.013246
v 7.642282 0.000000 6.870430
v 7.642282 7.745878 6.870430
v 7.642282 0.000000 -8.164046
v 7.642282 7.745878 -8.164046
v 1.247359 0.000000 -8.164046
v 1.247359 7.745878 -8.164046
v 1.247359 0.000000 6.870430
v 1.247359 7.745878 6.870430
v 1.247359 7.745878 -13.362287
v 7.642282 7.745878 -13.362287
v 7.642282 0.000000 -13.362287
v 1.247359 0.000000 -13.362287
v 1.261156 4.103477 -10.047008
v 1.261156 3.527255 -10.047008
v 1.261156 3.527255 -10.623229
v 0.017268 2.887207 6.803735
v 0.491366 2.887207 6.803735
v 0.491366 3.361305 6.803735
v -0.476833 3.633430 6.803735
vn 1.0000 -0.0000 -0.0000
vn -1.0000 -0.0000 -0.0000
vn -0.0000 -0.0000 -1.0000
vn -0.0000 1.0000 -0.0000
vn -0.0000 -1.0000 -0.0000
vn 0.6273 -0.0000 0.7788
vn -0.0000 -0.0000 1.0000
vt 0.375000 0.250000
vt 0.625000 0.000000
vt 0.375000 0.000000
vt 0.625000 0.500000
vt 0.375000 0.500000
vt 0.375000 0.750000
vt 0.375000 1.000000
vt 0.625000 0.875000
vt 0.375000 0.875000
vt 0.250000 0.750000
vt 0.250000 0.500000
vt 0.750000 0.750000
vt 0.875000 0.500000
vt 0.750000 0.500000
vt 0.625000 0.750000
vt 0.125000 0.500000
vt 0.375000 0.375000
vt 0.625000 0.250000
vt 0.625000 0.375000
vt 0.000000 0.000000
vt 0.625000 1.000000
vt 0.875000 0.750000
vt 0.125000 0.750000
s 0
usemtl base
f 3/1/1 2/2/1 1/3/1
f 14/4/2 7/5/2 8/4/2
f 5/6/2 8/4/2 7/5/2
f 1/7/3 12/8/3 11/9/3
f 11/10/4 7/5/4 9/11/4
f 12/12/5 4/13/5 10/14/5
f 6/15/5 10/14/5 8/4/5
f 3/16/4 11/10/4 9/11/4
f 11/9/3 6/15/3 5/6/3
f 9/17/6 4/18/6 3/1/6
f 15/5/7 13/19/7 16/17/7
f 13/14/5 8/4/5 10/14/5
f 15/5/4 9/11/4 7/5/4
f 16/17/1 10/19/1 9/17/1
f 3/1/1 4/18/1 2/2/1
f 14/4/2 15/5/2 7/5/2
f 5/6/2 6/15/2 8/4/2
f 1/7/3 2/21/3 12/8/3
f 11/10/4 5/6/4 7/5/4
f 12/12/5 2/22/5 4/13/5
f 6/15/5 12/12/5 10/14/5
f 3/16/4 1/23/4 11/10/4
f 11/9/3 12/8/3 6/15/3
f 9/17/6 10/19/6 4/18/6
f 15/5/7 14/4/7 13/19/7
f 13/14/5 14/4/5 8/4/5
f 15/5/4 16/11/4 9/11/4
f 16/17/1 13/19/1 10/19/1
usemtl light
f 18/20/1 19/20/1 17/20/1
f 20/20/3 22/20/3 21/20/3
f 20/20/3 23/20/3 22/20/3
