# Blender 4.3.2
# www.blender.org
mtllib sky.mtl
o Sphere
v -0.000045 831.469604 -555.570251
v -0.000045 555.570251 -831.469604
v -0.000045 195.090317 -980.785278
v -0.000045 0.000000 -1000.000000
v -0.000045 -195.090317 -980.785278
v -0.000045 -555.570251 -831.469604
v 38.060188 980.785278 -191.341705
v 74.657799 923.879517 -375.330261
v 108.386337 831.469604 -544.895142
v 137.949646 707.106750 -693.519897
v 162.211624 555.570251 -815.493103
v 180.239899 382.683441 -906.127380
v 191.341675 195.090317 -961.939697
v 195.090286 0.000000 -980.785278
v 191.341675 -195.090317 -961.939697
v 180.239899 -382.683441 -906.127380
v 162.211624 -555.570251 -815.493103
v 137.949646 -707.106750 -693.519897
v 108.386337 -831.469604 -544.895142
v 74.657799 -923.879517 -375.330261
v 38.060188 -980.785278 -191.341705
v 74.657784 980.785278 -180.239929
v 146.446564 923.879517 -353.553375
v 212.607483 831.469604 -513.279907
v 270.598022 707.106750 -653.281433
v 318.189606 555.570251 -768.177612
v 353.553314 382.683441 -853.553345
v 375.330231 195.090317 -906.127380
v 382.683411 0.000000 -923.879456
v 375.330231 -195.090317 -906.127380
v 353.553314 -382.683441 -853.553345
v 318.189606 -555.570251 -768.177612
v 270.598022 -707.106750 -653.281433
v 212.607483 -831.469604 -513.279907
v 146.446564 -923.879517 -353.553375
v 74.657784 -980.785278 -180.239929
v 108.386322 980.785278 -162.211639
v 212.607483 923.879517 -318.189636
v 308.658234 831.469604 -461.939667
v 392.847443 707.106750 -587.937744
v 461.939667 555.570251 -691.341553
v 513.279846 382.683441 -768.177673
v 544.895081 195.090317 -815.493103
v 555.570190 0.000000 -831.469482
v 544.895081 -195.090317 -815.493103
v 513.279846 -382.683441 -768.177673
v 461.939667 -555.570251 -691.341553
v 392.847443 -707.106750 -587.937744
v 308.658234 -831.469604 -461.939667
v 212.607483 -923.879517 -318.189636
v 108.386322 -980.785278 -162.211639
v 137.949631 980.785278 -137.949646
v 270.598022 923.879517 -270.597992
v 392.847412 831.469604 -392.847351
v 499.999969 707.106750 -499.999969
v 587.937683 555.570251 -587.937683
v 653.281311 382.683441 -653.281433
v 693.519836 195.090317 -693.519836
v 707.106689 0.000000 -707.106567
v 693.519836 -195.090317 -693.519836
v 653.281311 -382.683441 -653.281433
v 587.937683 -555.570251 -587.937683
v 499.999969 -707.106750 -499.999969
v 392.847412 -831.469604 -392.847351
v 270.598022 -923.879517 -270.597992
v 137.949631 -980.785278 -137.949646
v 162.211609 980.785278 -108.386330
v 318.189636 923.879517 -212.607483
v 461.939697 831.469604 -308.658173
v 587.937683 707.106750 -392.847443
v 691.341553 555.570251 -461.939606
v 768.177551 382.683441 -513.279968
v 815.493042 195.090317 -544.895020
v 831.469482 0.000000 -555.570007
v 815.493042 -195.090317 -544.895020
v 768.177551 -382.683441 -513.279968
v 691.341553 -555.570251 -461.939606
v 587.937683 -707.106750 -392.847443
v 461.939697 -831.469604 -308.658173
v 318.189636 -923.879517 -212.607483
v 162.211609 -980.785278 -108.386330
v -0.000045 1000.000000 0.000020
v 180.239868 980.785278 -74.657791
v 353.553314 923.879517 -146.446564
v 513.279846 831.469604 -212.607437
v 653.281372 707.106750 -270.598022
v 768.177551 555.570251 -318.189484
v 853.553223 382.683441 -353.553375
v 906.127258 195.090317 -375.330109
v 923.879333 0.000000 -382.683197
v 906.127258 -195.090317 -375.330109
v 853.553223 -382.683441 -353.553375
v 768.177551 -555.570251 -318.189484
v 653.281372 -707.106750 -270.598022
v 513.279846 -831.469604 -212.607437
v 353.553314 -923.879517 -146.446564
v 180.239868 -980.785278 -74.657791
v 191.341629 980.785278 -38.060196
v 375.330200 923.879517 -74.657791
v 544.895020 831.469604 -108.386292
v 693.519836 707.106750 -137.949692
v 815.492920 555.570251 -162.211548
v 906.127258 382.683441 -180.239975
v 961.939575 195.090317 -191.341599
v 980.785034 0.000000 -195.090118
v 961.939575 -195.090317 -191.341599
v 906.127258 -382.683441 -180.239975
v 815.492920 -555.570251 -162.211548
v 693.519836 -707.106750 -137.949692
v 544.895020 -831.469604 -108.386292
v 375.330200 -923.879517 -74.657791
v 191.341629 -980.785278 -38.060196
v 195.090225 980.785278 0.000031
v 382.683380 923.879517 0.000042
v 555.570068 831.469604 0.000072
v 707.106628 707.106750 0.000005
v 831.469360 555.570251 0.000109
v 923.879395 382.683441 -0.000025
v 980.785095 195.090317 0.000109
v 999.999634 0.000000 0.000184
v 980.785095 -195.090317 0.000109
v 923.879395 -382.683441 -0.000025
v 831.469360 -555.570251 0.000109
v 707.106628 -707.106750 0.000005
v 555.570068 -831.469604 0.000072
v 382.683380 -923.879517 0.000042
v 195.090225 -980.785278 0.000031
v 191.341614 980.785278 38.060253
v 375.330200 923.879517 74.657875
v 544.894958 831.469604 108.386429
v 693.519775 707.106750 137.949677
v 815.492859 555.570251 162.211746
v 906.127258 382.683441 180.239914
v 961.939514 195.090317 191.341782
v 980.784851 0.000000 195.090439
v 961.939514 -195.090317 191.341782
v 906.127258 -382.683441 180.239914
v 815.492859 -555.570251 162.211746
v 693.519775 -707.106750 137.949677
v 544.894958 -831.469604 108.386429
v 375.330200 -923.879517 74.657875
v 191.341614 -980.785278 38.060253
v 180.239838 980.785278 74.657845
v 353.553314 923.879517 146.446625
v 513.279724 831.469604 212.607544
v 653.281311 707.106750 270.598022
v 768.177429 555.570251 318.189667
v 853.553223 382.683441 353.553314
v 906.127136 195.090317 375.330322
v 923.879028 0.000000 382.683472
v 906.127136 -195.090317 375.330322
v 853.553223 -382.683441 353.553314
v 768.177429 -555.570251 318.189667
v 653.281311 -707.106750 270.598022
v 513.279724 -831.469604 212.607544
v 353.553314 -923.879517 146.446625
v 180.239838 -980.785278 74.657845
v 162.211548 980.785278 108.386360
v 318.189575 923.879517 212.607529
v 461.939545 831.469604 308.658264
v 587.937683 707.106750 392.847443
v 691.341431 555.570251 461.939728
v 768.177551 382.683441 513.279846
v 815.492859 195.090317 544.895081
v 831.469055 0.000000 555.570190
v 815.492859 -195.090317 544.895081
v 768.177551 -382.683441 513.279846
v 691.341431 -555.570251 461.939728
v 587.937683 -707.106750 392.847443
v 461.939545 -831.469604 308.658264
v 318.189575 -923.879517 212.607529
v 162.211548 -980.785278 108.386360
v 137.949570 980.785278 137.949646
v 270.597931 923.879517 270.598053
v 392.847229 831.469604 392.847443
v 499.999908 707.106750 499.999969
v 587.937500 555.570251 587.937683
v 653.281311 382.683441 653.281311
v 693.519653 195.090317 693.519836
v 707.106201 0.000000 707.106628
v 693.519653 -195.090317 693.519836
v 653.281311 -382.683441 653.281311
v 587.937500 -555.570251 587.937683
v 499.999908 -707.106750 499.999969
v 392.847229 -831.469604 392.847443
v 270.597931 -923.879517 270.598053
v 137.949570 -980.785278 137.949646
v 108.386269 980.785278 162.211609
v 212.607391 923.879517 318.189636
v 308.658051 831.469604 461.939697
v 392.847382 707.106750 587.937683
v 461.939514 555.570251 691.341492
v 513.279846 382.683441 768.177551
v 544.894836 195.090317 815.492981
v 555.569641 0.000000 831.469360
v 544.894836 -195.090317 815.492981
v 513.279846 -382.683441 768.177551
v 461.939514 -555.570251 691.341492
v 392.847382 -707.106750 587.937683
v 308.658051 -831.469604 461.939697
v 212.607391 -923.879517 318.189636
v 108.386269 -980.785278 162.211609
v 74.657738 980.785278 180.239868
v 146.446487 923.879517 353.553345
v 212.607315 831.469604 513.279785
v 270.597961 707.106750 653.281372
v 318.189423 555.570251 768.177490
v 353.553314 382.683441 853.553162
v 375.329987 195.090317 906.127197
v 382.682922 0.000000 923.879150
v 375.329987 -195.090317 906.127197
v 353.553314 -382.683441 853.553162
v 318.189423 -555.570251 768.177490
v 270.597961 -707.106750 653.281372
v 212.607315 -831.469604 513.279785
v 146.446487 -923.879517 353.553345
v 74.657738 -980.785278 180.239868
v 38.060158 980.785278 191.341614
v 74.657715 923.879517 375.330200
v 108.386192 831.469604 544.894897
v 137.949615 707.106750 693.519836
v 162.211472 555.570251 815.492859
v 180.239899 382.683441 906.127197
v 191.341476 195.090317 961.939453
v 195.089859 0.000000 980.784790
v 191.341476 -195.090317 961.939453
v 180.239899 -382.683441 906.127197
v 162.211472 -555.570251 815.492859
v 137.949615 -707.106750 693.519836
v 108.386192 -831.469604 544.894897
v 74.657715 -923.879517 375.330200
v 38.060158 -980.785278 191.341614
v -0.000052 980.785278 195.090210
v -0.000097 923.879517 382.683380
v -0.000141 831.469604 555.569946
v -0.000059 707.106750 707.106628
v -0.000149 555.570251 831.469299
v -0.000015 382.683441 923.879272
v -0.000179 195.090317 980.784973
v -0.000372 0.000000 999.999329
v -0.000179 -195.090317 980.784973
v -0.000015 -382.683441 923.879272
v -0.000149 -555.570251 831.469299
v -0.000059 -707.106750 707.106628
v -0.000141 -831.469604 555.569946
v -0.000097 -923.879517 382.683380
v -0.000052 -980.785278 195.090210
v -38.060261 980.785278 191.341599
v -74.657913 923.879517 375.330200
v -108.386467 831.469604 544.894836
v -137.949722 707.106750 693.519775
v -162.211761 555.570251 815.492798
v -180.239914 382.683441 906.127136
v -191.341827 195.090317 961.939392
v -195.090561 0.000000 980.784546
v -191.341827 -195.090317 961.939392
v -180.239914 -382.683441 906.127136
v -162.211761 -555.570251 815.492798
v -137.949722 -707.106750 693.519775
v -108.386467 -831.469604 544.894836
v -74.657913 -923.879517 375.330200
v -38.060261 -980.785278 191.341599
v -74.657829 980.785278 180.239838
v -146.446655 923.879517 353.553314
v -212.607544 831.469604 513.279602
v -270.598022 707.106750 653.281311
v -318.189636 555.570251 768.177368
v -353.553253 382.683441 853.553101
v -375.330292 195.090317 906.127014
v -382.683502 0.000000 923.878723
v -375.330292 -195.090317 906.127014
v -353.553253 -382.683441 853.553101
v -318.189636 -555.570251 768.177368
v -270.598022 -707.106750 653.281311
v -212.607544 -831.469604 513.279602
v -146.446655 -923.879517 353.553314
v -74.657829 -980.785278 180.239838
v -108.386345 980.785278 162.211563
v -212.607544 923.879517 318.189575
v -308.658203 831.469604 461.939423
v -392.847443 707.106750 587.937683
v -461.939667 555.570251 691.341370
v -513.279785 382.683441 768.177490
v -544.895142 195.090317 815.492737
v -555.570190 0.000000 831.468750
v -544.895142 -195.090317 815.492737
v -513.279785 -382.683441 768.177490
v -461.939667 -555.570251 691.341370
v -392.847443 -707.106750 587.937683
v -308.658203 -831.469604 461.939423
v -212.607544 -923.879517 318.189575
v -108.386345 -980.785278 162.211563
v -137.949631 980.785278 137.949585
v -270.598022 923.879517 270.597961
v -392.847321 831.469604 392.847137
v -499.999939 707.106750 499.999908
v -587.937683 555.570251 587.937439
v -653.281250 382.683441 653.281250
v -693.519836 195.090317 693.519531
v -707.106506 0.000000 707.105957
v -693.519836 -195.090317 693.519531
v -653.281250 -382.683441 653.281250
v -587.937683 -555.570251 587.937439
v -499.999939 -707.106750 499.999908
v -392.847321 -831.469604 392.847137
v -270.598022 -923.879517 270.597961
v -137.949631 -980.785278 137.949585
v -0.000045 -1000.000000 0.000020
v -162.211594 980.785278 108.386299
v -318.189606 923.879517 212.607422
v -461.939545 831.469604 308.657959
v -587.937683 707.106750 392.847382
v -691.341492 555.570251 461.939453
v -768.177490 382.683441 513.279785
v -815.492981 195.090317 544.894714
v -831.469177 0.000000 555.569397
v -815.492981 -195.090317 544.894714
v -768.177490 -382.683441 513.279785
v -691.341492 -555.570251 461.939453
v -587.937683 -707.106750 392.847382
v -461.939545 -831.469604 308.657959
v -318.189606 -923.879517 212.607422
v -162.211594 -980.785278 108.386299
v -180.239853 980.785278 74.657776
v -353.553284 923.879517 146.446533
v -513.279663 831.469604 212.607254
v -653.281372 707.106750 270.597992
v -768.177429 555.570251 318.189362
v -853.553101 382.683441 353.553284
v -906.127197 195.090317 375.329926
v -923.878906 0.000000 382.682709
v -906.127197 -195.090317 375.329926
v -853.553101 -382.683441 353.553284
v -768.177429 -555.570251 318.189362
v -653.281372 -707.106750 270.597992
v -513.279663 -831.469604 212.607254
v -353.553284 -923.879517 146.446533
v -180.239853 -980.785278 74.657776
v -191.341599 980.785278 38.060200
v -375.330139 923.879517 74.657776
v -544.894775 831.469604 108.386177
v -693.519836 707.106750 137.949646
v -815.492798 555.570251 162.211441
v -906.127136 382.683441 180.239899
v -961.939453 195.090317 191.341400
v -980.784485 0.000000 195.089706
v -961.939453 -195.090317 191.341400
v -906.127136 -382.683441 180.239899
v -815.492798 -555.570251 162.211441
v -693.519836 -707.106750 137.949646
v -544.894775 -831.469604 108.386177
v -375.330139 -923.879517 74.657776
v -191.341599 -980.785278 38.060200
v -195.090195 980.785278 0.000001
v -382.683289 923.879517 -0.000032
v -555.569824 831.469604 -0.000129
v -707.106628 707.106750 -0.000010
v -831.469238 555.570251 -0.000144
v -923.879211 382.683441 0.000005
v -980.784912 195.090317 -0.000248
v -999.999084 0.000000 -0.000427
v -980.784912 -195.090317 -0.000248
v -923.879211 -382.683441 0.000005
v -831.469238 -555.570251 -0.000144
v -707.106628 -707.106750 -0.000010
v -555.569824 -831.469604 -0.000129
v -382.683289 -923.879517 -0.000032
v -195.090195 -980.785278 0.000001
v -191.341583 980.785278 -38.060200
v -375.330109 923.879517 -74.657829
v -544.894714 831.469604 -108.386414
v -693.519775 707.106750 -137.949677
v -815.492676 555.570251 -162.211746
v -906.127075 382.683441 -180.239883
v -961.939270 195.090317 -191.341873
v -980.784302 0.000000 -195.090561
v -961.939270 -195.090317 -191.341873
v -906.127075 -382.683441 -180.239883
v -815.492676 -555.570251 -162.211746
v -693.519775 -707.106750 -137.949677
v -544.894714 -831.469604 -108.386414
v -375.330109 -923.879517 -74.657829
v -191.341583 -980.785278 -38.060200
v -180.239822 980.785278 -74.657761
v -353.553223 923.879517 -146.446564
v -513.279480 831.469604 -212.607468
v -653.281311 707.106750 -270.597961
v -768.177246 555.570251 -318.189606
v -853.553040 382.683441 -353.553192
v -906.126892 195.090317 -375.330292
v -923.878479 0.000000 -382.683441
v -906.126892 -195.090317 -375.330292
v -853.553040 -382.683441 -353.553192
v -768.177246 -555.570251 -318.189606
v -653.281311 -707.106750 -270.597961
v -513.279480 -831.469604 -212.607468
v -353.553223 -923.879517 -146.446564
v -180.239822 -980.785278 -74.657761
v -162.211548 980.785278 -108.386269
v -318.189484 923.879517 -212.607437
v -461.939240 831.469604 -308.658112
v -587.937683 707.106750 -392.847351
v -691.341248 555.570251 -461.939606
v -768.177429 382.683441 -513.279724
v -815.492615 195.090317 -544.895081
v -831.468506 0.000000 -555.570068
v -815.492615 -195.090317 -544.895081
v -768.177429 -382.683441 -513.279724
v -691.341248 -555.570251 -461.939606
v -587.937683 -707.106750 -392.847351
v -461.939240 -831.469604 -308.658112
v -318.189484 -923.879517 -212.607437
v -162.211548 -980.785278 -108.386269
v -137.949585 980.785278 -137.949554
v -270.597900 923.879517 -270.597900
v -392.846985 831.469604 -392.847198
v -499.999847 707.106750 -499.999847
v -587.937317 555.570251 -587.937561
v -653.281189 382.683441 -653.281128
v -693.519409 195.090317 -693.519714
v -707.105774 0.000000 -707.106323
v -693.519409 -195.090317 -693.519714
v -653.281189 -382.683441 -653.281128
v -587.937317 -555.570251 -587.937561
v -499.999847 -707.106750 -499.999847
v -392.846985 -831.469604 -392.847198
v -270.597900 -923.879517 -270.597900
v -137.949585 -980.785278 -137.949554
v -108.386292 980.785278 -162.211502
v -212.607407 923.879517 -318.189484
v -308.657837 831.469604 -461.939392
v -392.847321 707.106750 -587.937683
v -461.939301 555.570251 -691.341370
v -513.279724 382.683441 -768.177368
v -544.894653 195.090317 -815.492798
v -555.569275 0.000000 -831.468933
v -544.894653 -195.090317 -815.492798
v -513.279724 -382.683441 -768.177368
v -461.939301 -555.570251 -691.341370
v -392.847321 -707.106750 -587.937683
v -308.657837 -831.469604 -461.939392
v -212.607407 -923.879517 -318.189484
v -108.386292 -980.785278 -162.211502
v -74.657784 980.785278 -180.239746
v -146.446533 923.879517 -353.553192
v -212.607147 831.469604 -513.279480
v -270.597931 707.106750 -653.281311
v -318.189240 555.570251 -768.177246
v -353.553192 382.683441 -853.552979
v -375.329834 195.090317 -906.126953
v -382.682587 0.000000 -923.878601
v -375.329834 -195.090317 -906.126953
v -353.553192 -382.683441 -853.552979
v -318.189240 -555.570251 -768.177246
v -270.597931 -707.106750 -653.281311
v -212.607147 -831.469604 -513.279480
v -146.446533 -923.879517 -353.553192
v -74.657784 -980.785278 -180.239746
v -38.060223 980.785278 -191.341492
v -74.657776 923.879517 -375.330048
v -108.386086 831.469604 -544.894531
v -137.949615 707.106750 -693.519775
v -162.211380 555.570251 -815.492554
v -180.239853 382.683441 -906.126953
v -191.341370 195.090317 -961.939209
v -195.089661 0.000000 -980.784180
v -191.341370 -195.090317 -961.939209
v -180.239853 -382.683441 -906.126953
v -162.211380 -555.570251 -815.492554
v -137.949615 -707.106750 -693.519775
v -108.386086 -831.469604 -544.894531
v -74.657776 -923.879517 -375.330048
v -38.060223 -980.785278 -191.341492
v -0.000030 980.785278 -195.090088
v 0.000023 923.879517 -382.683197
v 0.000045 707.106750 -707.106567
v 0.000015 382.683441 -923.879028
v 0.000015 -382.683441 -923.879028
v 0.000045 -707.106750 -707.106567
v 0.000172 -831.469604 -555.569519
v 0.000023 -923.879517 -382.683197
v -0.000030 -980.785278 -195.090088
vn -0.0624 -0.7715 0.6332
vn -0.0759 0.6326 0.7708
vn -0.0759 -0.6326 0.7708
vn -0.0624 0.7715 0.6332
vn -0.0865 -0.4696 0.8786
vn -0.0464 0.8810 0.4709
vn -0.0938 -0.2890 0.9527
vn -0.0286 0.9565 0.2902
vn -0.0975 -0.0976 0.9904
vn -0.0096 -0.9951 0.0980
vn -0.0096 0.9951 0.0980
vn -0.0976 0.0975 0.9904
vn -0.0286 -0.9565 0.2902
vn -0.0938 0.2890 0.9527
vn -0.0464 -0.8810 0.4709
vn -0.0865 0.4696 0.8786
vn -0.1374 -0.8810 0.4528
vn -0.2563 0.4696 0.8448
vn -0.1847 -0.7715 0.6088
vn -0.2248 0.6326 0.7412
vn -0.2248 -0.6326 0.7412
vn -0.1847 0.7715 0.6088
vn -0.2563 -0.4696 0.8448
vn -0.1374 0.8810 0.4528
vn -0.2779 -0.2890 0.9161
vn -0.0846 0.9565 0.2790
vn -0.2889 -0.0976 0.9524
vn -0.0286 -0.9951 0.0942
vn -0.0286 0.9951 0.0942
vn -0.2889 0.0975 0.9524
vn -0.0846 -0.9565 0.2790
vn -0.2779 0.2890 0.9161
vn -0.4513 -0.2890 0.8443
vn -0.1374 0.9565 0.2571
vn -0.4691 -0.0976 0.8777
vn -0.0464 -0.9951 0.0869
vn -0.0464 0.9951 0.0869
vn -0.4691 0.0975 0.8777
vn -0.1374 -0.9565 0.2571
vn -0.4513 0.2890 0.8443
vn -0.2230 -0.8810 0.4173
vn -0.4162 0.4696 0.7786
vn -0.2999 -0.7715 0.5611
vn -0.3651 0.6326 0.6831
vn -0.3651 -0.6326 0.6831
vn -0.2999 0.7715 0.5611
vn -0.4162 -0.4696 0.7786
vn -0.2230 0.8810 0.4173
vn -0.5601 0.4696 0.6825
vn -0.4036 -0.7715 0.4918
vn -0.4913 0.6326 0.5987
vn -0.4913 -0.6326 0.5987
vn -0.4036 0.7715 0.4918
vn -0.5601 -0.4696 0.6825
vn -0.3002 0.8810 0.3658
vn -0.6073 -0.2890 0.7400
vn -0.1850 0.9565 0.2254
vn -0.6314 -0.0975 0.7693
vn -0.0625 -0.9951 0.0761
vn -0.0625 0.9951 0.0761
vn -0.6314 0.0975 0.7693
vn -0.1850 -0.9565 0.2254
vn -0.6073 0.2890 0.7400
vn -0.3002 -0.8810 0.3658
vn -0.2254 0.9565 0.1850
vn -0.7693 -0.0975 0.6314
vn -0.0761 -0.9951 0.0625
vn -0.0761 0.9951 0.0625
vn -0.7693 0.0975 0.6314
vn -0.2254 -0.9565 0.1850
vn -0.7400 0.2890 0.6073
vn -0.3658 -0.8810 0.3002
vn -0.6825 0.4696 0.5601
vn -0.4918 -0.7715 0.4036
vn -0.5987 0.6326 0.4913
vn -0.5987 -0.6326 0.4913
vn -0.4918 0.7715 0.4036
vn -0.6825 -0.4696 0.5601
vn -0.3658 0.8810 0.3002
vn -0.7400 -0.2890 0.6073
vn -0.5611 -0.7715 0.2999
vn -0.6831 0.6326 0.3651
vn -0.6831 -0.6326 0.3651
vn -0.5611 0.7715 0.2999
vn -0.7786 -0.4696 0.4162
vn -0.4173 0.8810 0.2230
vn -0.8443 -0.2890 0.4513
vn -0.2571 0.9565 0.1374
vn -0.8777 -0.0975 0.4691
vn -0.0869 -0.9951 0.0464
vn -0.0869 0.9951 0.0464
vn -0.8777 0.0975 0.4691
vn -0.2571 -0.9565 0.1374
vn -0.8443 0.2890 0.4513
vn -0.4173 -0.8810 0.2230
vn -0.7786 0.4696 0.4162
vn -0.9524 -0.0975 0.2889
vn -0.0942 -0.9951 0.0286
vn -0.0942 0.9951 0.0286
vn -0.9524 0.0975 0.2889
vn -0.2790 -0.9565 0.0846
vn -0.9161 0.2890 0.2779
vn -0.4528 -0.8810 0.1374
vn -0.8448 0.4696 0.2563
vn -0.6088 -0.7715 0.1847
vn -0.7412 0.6326 0.2248
vn -0.7412 -0.6326 0.2248
vn -0.6088 0.7715 0.1847
vn -0.8448 -0.4696 0.2563
vn -0.4528 0.8810 0.1374
vn -0.9161 -0.2890 0.2779
vn -0.2790 0.9565 0.0846
vn -0.7708 0.6326 0.0759
vn -0.7708 -0.6326 0.0759
vn -0.6332 0.7715 0.0624
vn -0.8786 -0.4696 0.0865
vn -0.4709 0.8810 0.0464
vn -0.9527 -0.2890 0.0938
vn -0.2902 0.9565 0.0286
vn -0.9904 -0.0975 0.0975
vn -0.0980 -0.9951 0.0097
vn -0.0980 0.9951 0.0097
vn -0.9904 0.0975 0.0975
vn -0.2902 -0.9565 0.0286
vn -0.9527 0.2890 0.0938
vn -0.4709 -0.8810 0.0464
vn -0.8786 0.4696 0.0865
vn -0.6332 -0.7715 0.0624
vn -0.0980 0.9951 -0.0097
vn -0.9904 0.0975 -0.0975
vn -0.2902 -0.9565 -0.0286
vn -0.9527 0.2890 -0.0938
vn -0.4709 -0.8810 -0.0464
vn -0.8786 0.4696 -0.0865
vn -0.6332 -0.7715 -0.0624
vn -0.7708 0.6326 -0.0759
vn -0.7708 -0.6326 -0.0759
vn -0.6332 0.7715 -0.0624
vn -0.8786 -0.4696 -0.0865
vn -0.4709 0.8810 -0.0464
vn -0.9527 -0.2890 -0.0938
vn -0.2902 0.9565 -0.0286
vn -0.9904 -0.0975 -0.0975
vn -0.0980 -0.9951 -0.0097
vn -0.6088 0.7715 -0.1847
vn -0.8448 -0.4696 -0.2563
vn -0.4528 0.8810 -0.1374
vn -0.9161 -0.2890 -0.2779
vn -0.2790 0.9565 -0.0846
vn -0.9524 -0.0975 -0.2889
vn -0.0942 -0.9951 -0.0286
vn -0.0942 0.9951 -0.0286
vn -0.9524 0.0975 -0.2889
vn -0.2790 -0.9565 -0.0846
vn -0.9161 0.2890 -0.2779
vn -0.4528 -0.8810 -0.1374
vn -0.8448 0.4696 -0.2563
vn -0.6088 -0.7715 -0.1847
vn -0.7412 0.6326 -0.2248
vn -0.7412 -0.6326 -0.2248
vn -0.2571 -0.9565 -0.1374
vn -0.8443 0.2890 -0.4513
vn -0.4173 -0.8810 -0.2230
vn -0.7786 0.4696 -0.4162
vn -0.5611 -0.7715 -0.2999
vn -0.6831 0.6326 -0.3651
vn -0.6831 -0.6326 -0.3651
vn -0.5611 0.7715 -0.2999
vn -0.7786 -0.4696 -0.4162
vn -0.4173 0.8810 -0.2230
vn -0.8443 -0.2890 -0.4513
vn -0.2571 0.9565 -0.1374
vn -0.8777 -0.0975 -0.4691
vn -0.0869 -0.9951 -0.0464
vn -0.0869 0.9951 -0.0464
vn -0.8777 0.0975 -0.4691
vn -0.6825 -0.4696 -0.5601
vn -0.3658 0.8810 -0.3002
vn -0.7400 -0.2890 -0.6073
vn -0.2254 0.9565 -0.1850
vn -0.7693 -0.0975 -0.6314
vn -0.0761 -0.9951 -0.0625
vn -0.0761 0.9951 -0.0625
vn -0.7693 0.0975 -0.6314
vn -0.2254 -0.9565 -0.1850
vn -0.7400 0.2890 -0.6073
vn -0.3658 -0.8810 -0.3002
vn -0.6825 0.4696 -0.5601
vn -0.4918 -0.7715 -0.4036
vn -0.5987 0.6326 -0.4913
vn -0.5987 -0.6326 -0.4913
vn -0.4918 0.7715 -0.4036
vn -0.6073 0.2890 -0.7400
vn -0.3002 -0.8810 -0.3658
vn -0.5601 0.4696 -0.6825
vn -0.4036 -0.7715 -0.4918
vn -0.4913 0.6326 -0.5987
vn -0.4913 -0.6326 -0.5987
vn -0.4036 0.7715 -0.4918
vn -0.5601 -0.4696 -0.6825
vn -0.3002 0.8810 -0.3658
vn -0.6073 -0.2890 -0.7400
vn -0.1850 0.9565 -0.2254
vn -0.6314 -0.0975 -0.7693
vn -0.0625 -0.9951 -0.0761
vn -0.0625 0.9951 -0.0761
vn -0.6314 0.0975 -0.7693
vn -0.1850 -0.9565 -0.2254
vn -0.2230 0.8810 -0.4173
vn -0.4513 -0.2890 -0.8443
vn -0.1374 0.9565 -0.2571
vn -0.4691 -0.0975 -0.8777
vn -0.0464 -0.9951 -0.0869
vn -0.0464 0.9951 -0.0869
vn -0.4691 0.0975 -0.8777
vn -0.1374 -0.9565 -0.2571
vn -0.4513 0.2890 -0.8443
vn -0.2230 -0.8810 -0.4173
vn -0.4162 0.4696 -0.7786
vn -0.2999 -0.7715 -0.5611
vn -0.3651 0.6326 -0.6831
vn -0.3651 -0.6326 -0.6831
vn -0.2999 0.7715 -0.5611
vn -0.4162 -0.4696 -0.7786
vn -0.1374 -0.8810 -0.4528
vn -0.2563 0.4696 -0.8448
vn -0.1847 -0.7715 -0.6088
vn -0.2248 0.6326 -0.7412
vn -0.2248 -0.6326 -0.7412
vn -0.1847 0.7715 -0.6088
vn -0.2563 -0.4696 -0.8448
vn -0.1374 0.8810 -0.4528
vn -0.2779 -0.2890 -0.9161
vn -0.0846 0.9565 -0.2790
vn -0.2889 -0.0975 -0.9524
vn -0.0286 -0.9951 -0.0942
vn -0.0286 0.9951 -0.0942
vn -0.2889 0.0975 -0.9524
vn -0.0846 -0.9565 -0.2790
vn -0.2779 0.2890 -0.9161
vn -0.0938 -0.2890 -0.9527
vn -0.0286 0.9565 -0.2902
vn -0.0975 -0.0976 -0.9904
vn -0.0097 -0.9951 -0.0980
vn -0.0097 0.9951 -0.0980
vn -0.0975 0.0975 -0.9904
vn -0.0286 -0.9565 -0.2902
vn -0.0938 0.2890 -0.9527
vn -0.0464 -0.8810 -0.4709
vn -0.0865 0.4696 -0.8786
vn -0.0624 -0.7715 -0.6332
vn -0.0759 0.6326 -0.7708
vn -0.0759 -0.6326 -0.7708
vn -0.0624 0.7715 -0.6332
vn -0.0865 -0.4696 -0.8786
vn -0.0464 0.8810 -0.4709
vn 0.0865 0.4696 -0.8786
vn 0.0624 -0.7715 -0.6332
vn 0.0759 0.6326 -0.7708
vn 0.0759 -0.6326 -0.7708
vn 0.0624 0.7715 -0.6332
vn 0.0865 -0.4696 -0.8786
vn 0.0464 0.8810 -0.4709
vn 0.0938 -0.2890 -0.9527
vn 0.0286 0.9565 -0.2902
vn 0.0976 -0.0975 -0.9904
vn 0.0097 -0.9951 -0.0980
vn 0.0097 0.9951 -0.0980
vn 0.0976 0.0975 -0.9904
vn 0.0286 -0.9565 -0.2902
vn 0.0938 0.2890 -0.9527
vn 0.0464 -0.8810 -0.4709
vn 0.0846 0.9565 -0.2790
vn 0.2889 -0.0975 -0.9524
vn 0.0286 -0.9951 -0.0942
vn 0.0286 0.9951 -0.0942
vn 0.2889 0.0975 -0.9524
vn 0.0846 -0.9565 -0.2790
vn 0.2779 0.2890 -0.9161
vn 0.1374 -0.8810 -0.4528
vn 0.2563 0.4696 -0.8448
vn 0.1847 -0.7715 -0.6088
vn 0.2248 0.6326 -0.7412
vn 0.2248 -0.6326 -0.7412
vn 0.1847 0.7715 -0.6088
vn 0.2563 -0.4696 -0.8448
vn 0.1374 0.8810 -0.4528
vn 0.2779 -0.2890 -0.9161
vn 0.3651 0.6326 -0.6831
vn 0.3651 -0.6326 -0.6831
vn 0.2999 0.7715 -0.5611
vn 0.4162 -0.4696 -0.7786
vn 0.2231 0.8810 -0.4173
vn 0.4513 -0.2890 -0.8443
vn 0.1374 0.9565 -0.2571
vn 0.4691 -0.0975 -0.8777
vn 0.0464 -0.9951 -0.0869
vn 0.0464 0.9951 -0.0869
vn 0.4691 0.0975 -0.8777
vn 0.1374 -0.9565 -0.2571
vn 0.4513 0.2890 -0.8443
vn 0.2231 -0.8810 -0.4173
vn 0.4162 0.4696 -0.7786
vn 0.2999 -0.7715 -0.5611
vn 0.0625 -0.9951 -0.0761
vn 0.0625 0.9951 -0.0761
vn 0.6314 0.0975 -0.7693
vn 0.1850 -0.9565 -0.2254
vn 0.6073 0.2890 -0.7400
vn 0.3002 -0.8810 -0.3658
vn 0.5601 0.4696 -0.6825
vn 0.4036 -0.7715 -0.4918
vn 0.4913 0.6326 -0.5987
vn 0.4913 -0.6326 -0.5987
vn 0.4036 0.7715 -0.4918
vn 0.5601 -0.4696 -0.6825
vn 0.3002 0.8810 -0.3658
vn 0.6073 -0.2890 -0.7400
vn 0.1850 0.9565 -0.2254
vn 0.6314 -0.0975 -0.7693
vn 0.5987 -0.6326 -0.4913
vn 0.4918 0.7715 -0.4036
vn 0.6825 -0.4696 -0.5601
vn 0.3658 0.8810 -0.3002
vn 0.7400 -0.2890 -0.6073
vn 0.2254 0.9565 -0.1850
vn 0.7693 -0.0975 -0.6314
vn 0.0761 -0.9951 -0.0625
vn 0.0761 0.9951 -0.0625
vn 0.7693 0.0975 -0.6314
vn 0.2254 -0.9565 -0.1850
vn 0.7400 0.2890 -0.6073
vn 0.3658 -0.8810 -0.3002
vn 0.6825 0.4696 -0.5601
vn 0.4918 -0.7715 -0.4036
vn 0.5987 0.6326 -0.4913
vn 0.8777 0.0975 -0.4691
vn 0.2571 -0.9565 -0.1374
vn 0.8443 0.2890 -0.4513
vn 0.4173 -0.8810 -0.2230
vn 0.7786 0.4696 -0.4162
vn 0.5611 -0.7715 -0.2999
vn 0.6831 0.6326 -0.3651
vn 0.6831 -0.6326 -0.3651
vn 0.5611 0.7715 -0.2999
vn 0.7786 -0.4696 -0.4162
vn 0.4173 0.8810 -0.2230
vn 0.8443 -0.2890 -0.4513
vn 0.2571 0.9566 -0.1374
vn 0.8777 -0.0975 -0.4691
vn 0.0869 -0.9951 -0.0464
vn 0.0869 0.9951 -0.0464
vn 0.6088 0.7715 -0.1847
vn 0.8448 -0.4696 -0.2563
vn 0.4528 0.8810 -0.1374
vn 0.9161 -0.2890 -0.2779
vn 0.2790 0.9565 -0.0846
vn 0.9524 -0.0975 -0.2889
vn 0.0942 -0.9951 -0.0286
vn 0.0942 0.9951 -0.0286
vn 0.9524 0.0975 -0.2889
vn 0.2790 -0.9565 -0.0846
vn 0.9161 0.2890 -0.2779
vn 0.4528 -0.8810 -0.1374
vn 0.8448 0.4696 -0.2563
vn 0.6088 -0.7715 -0.1847
vn 0.7412 0.6326 -0.2248
vn 0.7412 -0.6326 -0.2248
vn 0.2902 -0.9565 -0.0286
vn 0.9527 0.2890 -0.0938
vn 0.4709 -0.8810 -0.0464
vn 0.8786 0.4696 -0.0865
vn 0.6332 -0.7715 -0.0624
vn 0.7708 0.6326 -0.0759
vn 0.7708 -0.6326 -0.0759
vn 0.6332 0.7715 -0.0624
vn 0.8786 -0.4696 -0.0865
vn 0.4709 0.8810 -0.0464
vn 0.9527 -0.2890 -0.0938
vn 0.2902 0.9565 -0.0286
vn 0.9904 -0.0975 -0.0975
vn 0.0980 -0.9951 -0.0097
vn 0.0980 0.9951 -0.0097
vn 0.9904 0.0975 -0.0975
vn 0.8786 -0.4696 0.0865
vn 0.4709 0.8810 0.0464
vn 0.9527 -0.2890 0.0938
vn 0.2902 0.9565 0.0286
vn 0.9904 -0.0975 0.0975
vn 0.0980 -0.9951 0.0097
vn 0.0980 0.9951 0.0097
vn 0.9904 0.0975 0.0975
vn 0.2902 -0.9565 0.0286
vn 0.9527 0.2890 0.0938
vn 0.4709 -0.8810 0.0464
vn 0.8786 0.4696 0.0865
vn 0.6332 -0.7715 0.0624
vn 0.7708 0.6326 0.0759
vn 0.7708 -0.6326 0.0759
vn 0.6332 0.7715 0.0624
vn 0.9161 0.2890 0.2779
vn 0.4528 -0.8810 0.1374
vn 0.8448 0.4696 0.2563
vn 0.6088 -0.7715 0.1847
vn 0.7412 0.6326 0.2248
vn 0.7412 -0.6326 0.2248
vn 0.6088 0.7715 0.1847
vn 0.8448 -0.4696 0.2563
vn 0.4528 0.8810 0.1374
vn 0.9161 -0.2890 0.2779
vn 0.2790 0.9565 0.0846
vn 0.9524 -0.0975 0.2889
vn 0.0942 -0.9951 0.0286
vn 0.0942 0.9951 0.0286
vn 0.9524 0.0975 0.2889
vn 0.2790 -0.9565 0.0846
vn 0.4173 0.8810 0.2231
vn 0.8443 -0.2890 0.4513
vn 0.2571 0.9565 0.1374
vn 0.8777 -0.0975 0.4691
vn 0.0869 -0.9951 0.0464
vn 0.0869 0.9951 0.0464
vn 0.8777 0.0975 0.4691
vn 0.2571 -0.9565 0.1374
vn 0.8443 0.2890 0.4513
vn 0.4173 -0.8810 0.2231
vn 0.7786 0.4696 0.4162
vn 0.5611 -0.7715 0.2999
vn 0.6831 0.6326 0.3651
vn 0.6831 -0.6326 0.3651
vn 0.5611 0.7715 0.2999
vn 0.7786 -0.4696 0.4162
vn 0.6825 0.4696 0.5601
vn 0.4918 -0.7715 0.4036
vn 0.5987 0.6326 0.4913
vn 0.5987 -0.6326 0.4913
vn 0.4918 0.7715 0.4036
vn 0.6825 -0.4696 0.5601
vn 0.3658 0.8810 0.3002
vn 0.7400 -0.2890 0.6073
vn 0.2254 0.9565 0.1850
vn 0.7693 -0.0975 0.6314
vn 0.0761 -0.9951 0.0625
vn 0.0761 0.9951 0.0625
vn 0.7693 0.0975 0.6314
vn 0.2254 -0.9565 0.1850
vn 0.7400 0.2890 0.6073
vn 0.3658 -0.8810 0.3002
vn 0.1850 0.9565 0.2254
vn 0.6314 -0.0975 0.7693
vn 0.0625 -0.9951 0.0761
vn 0.0625 0.9951 0.0761
vn 0.6314 0.0975 0.7693
vn 0.1850 -0.9565 0.2254
vn 0.6073 0.2890 0.7400
vn 0.3002 -0.8810 0.3658
vn 0.5601 0.4696 0.6825
vn 0.4036 -0.7715 0.4918
vn 0.4913 0.6326 0.5987
vn 0.4913 -0.6326 0.5987
vn 0.4036 0.7715 0.4918
vn 0.5601 -0.4696 0.6825
vn 0.3002 0.8810 0.3658
vn 0.6073 -0.2890 0.7400
vn 0.2999 -0.7715 0.5611
vn 0.3651 0.6326 0.6831
vn 0.3651 -0.6326 0.6831
vn 0.2999 0.7715 0.5611
vn 0.4162 -0.4696 0.7786
vn 0.2230 0.8810 0.4173
vn 0.4513 -0.2890 0.8443
vn 0.1374 0.9565 0.2571
vn 0.4691 -0.0975 0.8777
vn 0.0464 -0.9951 0.0869
vn 0.0464 0.9951 0.0869
vn 0.4691 0.0975 0.8777
vn 0.1374 -0.9565 0.2571
vn 0.4513 0.2890 0.8443
vn 0.2231 -0.8810 0.4173
vn 0.4162 0.4696 0.7786
vn 0.2889 -0.0975 0.9524
vn 0.0286 -0.9951 0.0942
vn 0.0286 0.9951 0.0942
vn 0.2889 0.0975 0.9524
vn 0.0846 -0.9565 0.2790
vn 0.2779 0.2890 0.9161
vn 0.1374 -0.8810 0.4528
vn 0.2563 0.4696 0.8448
vn 0.1847 -0.7715 0.6088
vn 0.2248 0.6326 0.7412
vn 0.2248 -0.6326 0.7412
vn 0.1847 0.7715 0.6088
vn 0.2563 -0.4696 0.8448
vn 0.1374 0.8810 0.4528
vn 0.2779 -0.2890 0.9161
vn 0.0846 0.9565 0.2790
vn 0.0759 0.6326 0.7708
vn 0.0759 -0.6326 0.7708
vn 0.0624 0.7715 0.6332
vn 0.0865 -0.4696 0.8786
vn 0.0464 0.8810 0.4709
vn 0.0938 -0.2890 0.9527
vn 0.0286 0.9565 0.2902
vn 0.0976 -0.0975 0.9904
vn 0.0097 -0.9951 0.0980
vn 0.0097 0.9951 0.0980
vn 0.0976 0.0975 0.9904
vn 0.0286 -0.9565 0.2902
vn 0.0938 0.2890 0.9527
vn 0.0464 -0.8810 0.4709
vn 0.0865 0.4696 0.8786
vn 0.0624 -0.7715 0.6332
vn -0.0976 -0.0975 0.9904
vn -0.0975 0.0976 0.9904
vn -0.2889 -0.0975 0.9524
vn -0.2889 0.0976 0.9524
vn -0.4691 -0.0975 0.8777
vn -0.2231 -0.8810 0.4173
vn -0.2231 0.8810 0.4173
vn -0.9904 0.0975 -0.0976
vn -0.9904 -0.0975 -0.0976
vn -0.2231 0.8810 -0.4173
vn -0.0975 -0.0975 -0.9904
vn 0.2230 0.8810 -0.4173
vn 0.2230 -0.8810 -0.4173
vn 0.2571 0.9565 -0.1374
vn 0.9904 -0.0975 0.0976
vn 0.9904 0.0975 0.0976
vn 0.2571 0.9566 0.1374
vn 0.2254 -0.9566 0.1850
vt 0.750000 0.750000
vt 0.718750 0.812500
vt 0.750000 0.812500
vt 0.750000 0.250000
vt 0.718750 0.312500
vt 0.750000 0.312500
vt 0.750000 0.687500
vt 0.718750 0.750000
vt 0.718750 0.187500
vt 0.750000 0.187500
vt 0.750000 0.625000
vt 0.718750 0.687500
vt 0.718750 0.125000
vt 0.750000 0.125000
vt 0.750000 0.562500
vt 0.718750 0.625000
vt 0.718750 0.062500
vt 0.750000 0.062500
vt 0.718750 0.500000
vt 0.750000 0.500000
vt 0.750000 0.937500
vt 0.718750 0.937500
vt 0.734375 1.000000
vt 0.734375 0.000000
vt 0.718750 0.437500
vt 0.750000 0.437500
vt 0.750000 0.875000
vt 0.718750 0.375000
vt 0.750000 0.375000
vt 0.718750 0.875000
vt 0.687500 0.812500
vt 0.687500 0.312500
vt 0.687500 0.750000
vt 0.718750 0.250000
vt 0.687500 0.687500
vt 0.687500 0.187500
vt 0.687500 0.625000
vt 0.687500 0.562500
vt 0.718750 0.562500
vt 0.687500 0.062500
vt 0.687500 0.500000
vt 0.687500 0.937500
vt 0.703125 1.000000
vt 0.703125 0.000000
vt 0.687500 0.437500
vt 0.687500 0.875000
vt 0.687500 0.375000
vt 0.656250 0.625000
vt 0.656250 0.062500
vt 0.687500 0.125000
vt 0.656250 0.562500
vt 0.656250 0.937500
vt 0.671875 1.000000
vt 0.671875 0.000000
vt 0.656250 0.437500
vt 0.656250 0.375000
vt 0.656250 0.812500
vt 0.656250 0.750000
vt 0.656250 0.250000
vt 0.687500 0.250000
vt 0.656250 0.187500
vt 0.656250 0.312500
vt 0.625000 0.375000
vt 0.625000 0.750000
vt 0.625000 0.250000
vt 0.625000 0.687500
vt 0.656250 0.687500
vt 0.625000 0.625000
vt 0.656250 0.125000
vt 0.625000 0.187500
vt 0.625000 0.125000
vt 0.656250 0.500000
vt 0.625000 0.562500
vt 0.625000 0.937500
vt 0.640625 1.000000
vt 0.640625 0.000000
vt 0.625000 0.062500
vt 0.625000 0.437500
vt 0.625000 0.875000
vt 0.656250 0.875000
vt 0.625000 0.812500
vt 0.593750 0.062500
vt 0.625000 0.500000
vt 0.593750 0.562500
vt 0.593750 0.937500
vt 0.609375 1.000000
vt 0.609375 0.000000
vt 0.593750 0.437500
vt 0.593750 0.875000
vt 0.593750 0.375000
vt 0.593750 0.812500
vt 0.625000 0.312500
vt 0.593750 0.750000
vt 0.593750 0.250000
vt 0.593750 0.687500
vt 0.593750 0.625000
vt 0.593750 0.125000
vt 0.562500 0.750000
vt 0.562500 0.250000
vt 0.593750 0.312500
vt 0.593750 0.187500
vt 0.562500 0.625000
vt 0.562500 0.187500
vt 0.562500 0.125000
vt 0.593750 0.500000
vt 0.562500 0.562500
vt 0.562500 0.937500
vt 0.578125 1.000000
vt 0.578125 0.000000
vt 0.562500 0.062500
vt 0.562500 0.437500
vt 0.562500 0.875000
vt 0.562500 0.375000
vt 0.562500 0.812500
vt 0.562500 0.500000
vt 0.531250 0.562500
vt 0.531250 0.937500
vt 0.546875 1.000000
vt 0.546875 0.000000
vt 0.531250 0.062500
vt 0.531250 0.437500
vt 0.531250 0.375000
vt 0.531250 0.875000
vt 0.562500 0.312500
vt 0.531250 0.750000
vt 0.531250 0.250000
vt 0.562500 0.687500
vt 0.531250 0.187500
vt 0.531250 0.625000
vt 0.531250 0.125000
vt 0.500000 0.250000
vt 0.531250 0.312500
vt 0.531250 0.687500
vt 0.500000 0.750000
vt 0.500000 0.625000
vt 0.500000 0.187500
vt 0.500000 0.062500
vt 0.531250 0.500000
vt 0.500000 0.562500
vt 0.500000 0.937500
vt 0.515625 1.000000
vt 0.515625 0.000000
vt 0.500000 0.437500
vt 0.500000 0.375000
vt 0.500000 0.812500
vt 0.531250 0.812500
vt 0.484375 0.000000
vt 0.468750 0.062500
vt 0.468750 0.437500
vt 0.500000 0.500000
vt 0.468750 0.875000
vt 0.500000 0.875000
vt 0.468750 0.375000
vt 0.468750 0.812500
vt 0.500000 0.312500
vt 0.468750 0.750000
vt 0.468750 0.250000
vt 0.500000 0.687500
vt 0.468750 0.187500
vt 0.468750 0.625000
vt 0.468750 0.125000
vt 0.500000 0.125000
vt 0.468750 0.562500
vt 0.468750 0.937500
vt 0.484375 1.000000
vt 0.437500 0.250000
vt 0.437500 0.625000
vt 0.468750 0.687500
vt 0.437500 0.187500
vt 0.437500 0.125000
vt 0.468750 0.500000
vt 0.437500 0.562500
vt 0.437500 0.937500
vt 0.453125 1.000000
vt 0.453125 0.000000
vt 0.437500 0.062500
vt 0.437500 0.437500
vt 0.437500 0.875000
vt 0.437500 0.375000
vt 0.437500 0.812500
vt 0.468750 0.312500
vt 0.437500 0.750000
vt 0.406250 0.875000
vt 0.406250 0.375000
vt 0.406250 0.812500
vt 0.437500 0.312500
vt 0.406250 0.750000
vt 0.406250 0.250000
vt 0.437500 0.687500
vt 0.406250 0.625000
vt 0.406250 0.187500
vt 0.406250 0.125000
vt 0.437500 0.500000
vt 0.406250 0.562500
vt 0.406250 0.937500
vt 0.421875 1.000000
vt 0.421875 0.000000
vt 0.406250 0.062500
vt 0.406250 0.437500
vt 0.375000 0.625000
vt 0.406250 0.687500
vt 0.375000 0.187500
vt 0.375000 0.125000
vt 0.406250 0.500000
vt 0.375000 0.562500
vt 0.375000 0.937500
vt 0.390625 1.000000
vt 0.390625 0.000000
vt 0.375000 0.062500
vt 0.375000 0.437500
vt 0.375000 0.875000
vt 0.375000 0.375000
vt 0.375000 0.812500
vt 0.406250 0.312500
vt 0.375000 0.750000
vt 0.375000 0.250000
vt 0.343750 0.375000
vt 0.343750 0.875000
vt 0.375000 0.312500
vt 0.343750 0.750000
vt 0.343750 0.250000
vt 0.343750 0.687500
vt 0.375000 0.687500
vt 0.343750 0.625000
vt 0.343750 0.125000
vt 0.343750 0.062500
vt 0.375000 0.500000
vt 0.343750 0.562500
vt 0.343750 0.937500
vt 0.359375 1.000000
vt 0.359375 0.000000
vt 0.343750 0.437500
vt 0.312500 0.187500
vt 0.343750 0.187500
vt 0.312500 0.625000
vt 0.312500 0.062500
vt 0.343750 0.500000
vt 0.312500 0.562500
vt 0.312500 0.937500
vt 0.328125 1.000000
vt 0.328125 0.000000
vt 0.312500 0.437500
vt 0.312500 0.875000
vt 0.312500 0.375000
vt 0.312500 0.812500
vt 0.343750 0.812500
vt 0.343750 0.312500
vt 0.312500 0.750000
vt 0.312500 0.250000
vt 0.281250 0.812500
vt 0.312500 0.312500
vt 0.281250 0.375000
vt 0.281250 0.750000
vt 0.281250 0.250000
vt 0.312500 0.687500
vt 0.281250 0.625000
vt 0.312500 0.125000
vt 0.281250 0.187500
vt 0.281250 0.062500
vt 0.312500 0.500000
vt 0.281250 0.562500
vt 0.281250 0.937500
vt 0.296875 1.000000
vt 0.296875 0.000000
vt 0.281250 0.437500
vt 0.281250 0.875000
vt 0.250000 0.625000
vt 0.250000 0.062500
vt 0.281250 0.125000
vt 0.281250 0.500000
vt 0.250000 0.562500
vt 0.250000 0.937500
vt 0.265625 1.000000
vt 0.265625 0.000000
vt 0.250000 0.437500
vt 0.250000 0.375000
vt 0.250000 0.875000
vt 0.281250 0.312500
vt 0.250000 0.750000
vt 0.250000 0.250000
vt 0.281250 0.687500
vt 0.250000 0.125000
vt 0.250000 0.312500
vt 0.218750 0.375000
vt 0.218750 0.750000
vt 0.250000 0.812500
vt 0.218750 0.250000
vt 0.218750 0.687500
vt 0.250000 0.687500
vt 0.250000 0.187500
vt 0.218750 0.625000
vt 0.218750 0.125000
vt 0.218750 0.062500
vt 0.250000 0.500000
vt 0.218750 0.562500
vt 0.218750 0.937500
vt 0.234375 1.000000
vt 0.234375 0.000000
vt 0.218750 0.437500
vt 0.218750 0.875000
vt 0.187500 0.062500
vt 0.218750 0.500000
vt 0.187500 0.562500
vt 0.187500 0.937500
vt 0.203125 1.000000
vt 0.203125 0.000000
vt 0.187500 0.437500
vt 0.187500 0.875000
vt 0.187500 0.375000
vt 0.187500 0.812500
vt 0.218750 0.812500
vt 0.218750 0.312500
vt 0.187500 0.750000
vt 0.187500 0.250000
vt 0.218750 0.187500
vt 0.187500 0.625000
vt 0.187500 0.125000
vt 0.156250 0.250000
vt 0.187500 0.312500
vt 0.187500 0.687500
vt 0.156250 0.750000
vt 0.187500 0.187500
vt 0.156250 0.625000
vt 0.156250 0.125000
vt 0.187500 0.500000
vt 0.156250 0.562500
vt 0.156250 0.937500
vt 0.171875 1.000000
vt 0.171875 0.000000
vt 0.156250 0.062500
vt 0.156250 0.437500
vt 0.156250 0.375000
vt 0.156250 0.875000
vt 0.125000 0.937500
vt 0.140625 1.000000
vt 0.140625 0.000000
vt 0.125000 0.062500
vt 0.125000 0.437500
vt 0.156250 0.500000
vt 0.125000 0.875000
vt 0.125000 0.375000
vt 0.125000 0.812500
vt 0.156250 0.812500
vt 0.156250 0.312500
vt 0.125000 0.750000
vt 0.125000 0.250000
vt 0.156250 0.687500
vt 0.156250 0.187500
vt 0.125000 0.625000
vt 0.125000 0.125000
vt 0.125000 0.562500
vt 0.125000 0.687500
vt 0.093750 0.750000
vt 0.125000 0.187500
vt 0.093750 0.250000
vt 0.093750 0.625000
vt 0.093750 0.125000
vt 0.093750 0.062500
vt 0.125000 0.500000
vt 0.093750 0.562500
vt 0.093750 0.937500
vt 0.109375 1.000000
vt 0.109375 0.000000
vt 0.093750 0.437500
vt 0.093750 0.875000
vt 0.093750 0.375000
vt 0.125000 0.312500
vt 0.062500 0.437500
vt 0.093750 0.500000
vt 0.062500 0.875000
vt 0.062500 0.375000
vt 0.062500 0.812500
vt 0.093750 0.812500
vt 0.093750 0.312500
vt 0.062500 0.750000
vt 0.062500 0.250000
vt 0.062500 0.687500
vt 0.093750 0.687500
vt 0.093750 0.187500
vt 0.062500 0.625000
vt 0.062500 0.125000
vt 0.062500 0.062500
vt 0.062500 0.562500
vt 0.062500 0.937500
vt 0.078125 1.000000
vt 0.078125 0.000000
vt 0.062500 0.187500
vt 0.031250 0.250000
vt 0.031250 0.625000
vt 0.031250 0.125000
vt 0.062500 0.500000
vt 0.031250 0.562500
vt 0.031250 0.937500
vt 0.046875 1.000000
vt 0.046875 0.000000
vt 0.031250 0.062500
vt 0.031250 0.437500
vt 0.031250 0.875000
vt 0.031250 0.375000
vt 0.062500 0.312500
vt 0.031250 0.750000
vt 0.000000 0.875000
vt 0.000000 0.375000
vt 0.031250 0.812500
vt 0.031250 0.312500
vt 0.000000 0.750000
vt 0.000000 0.250000
vt 0.031250 0.687500
vt 0.031250 0.187500
vt 0.000000 0.625000
vt 0.000000 0.125000
vt 0.000000 0.062500
vt 0.031250 0.500000
vt 0.000000 0.562500
vt 0.000000 0.937500
vt 0.015625 1.000000
vt 0.015625 0.000000
vt 0.000000 0.437500
vt 0.968750 0.625000
vt 1.000000 0.687500
vt 1.000000 0.625000
vt 0.968750 0.125000
vt 1.000000 0.187500
vt 1.000000 0.125000
vt 1.000000 0.562500
vt 0.968750 0.062500
vt 1.000000 0.062500
vt 1.000000 0.500000
vt 0.968750 0.562500
vt 1.000000 0.937500
vt 0.968750 0.937500
vt 0.984375 1.000000
vt 0.984375 0.000000
vt 0.968750 0.437500
vt 1.000000 0.437500
vt 0.968750 0.875000
vt 1.000000 0.875000
vt 0.968750 0.375000
vt 1.000000 0.375000
vt 1.000000 0.812500
vt 1.000000 0.312500
vt 0.968750 0.750000
vt 1.000000 0.750000
vt 0.968750 0.250000
vt 1.000000 0.250000
vt 0.937500 0.375000
vt 0.968750 0.812500
vt 0.937500 0.875000
vt 0.968750 0.312500
vt 0.937500 0.750000
vt 0.937500 0.250000
vt 0.968750 0.687500
vt 0.968750 0.187500
vt 0.937500 0.625000
vt 0.937500 0.125000
vt 0.937500 0.062500
vt 0.968750 0.500000
vt 0.937500 0.562500
vt 0.937500 0.937500
vt 0.953125 1.000000
vt 0.953125 0.000000
vt 0.937500 0.437500
vt 0.906250 0.125000
vt 0.937500 0.187500
vt 0.906250 0.625000
vt 0.937500 0.500000
vt 0.906250 0.562500
vt 0.906250 0.937500
vt 0.921875 1.000000
vt 0.921875 0.000000
vt 0.906250 0.062500
vt 0.906250 0.437500
vt 0.906250 0.875000
vt 0.906250 0.375000
vt 0.937500 0.812500
vt 0.937500 0.312500
vt 0.906250 0.750000
vt 0.906250 0.250000
vt 0.937500 0.687500
vt 0.906250 0.312500
vt 0.875000 0.375000
vt 0.875000 0.750000
vt 0.906250 0.812500
vt 0.875000 0.250000
vt 0.906250 0.687500
vt 0.906250 0.187500
vt 0.875000 0.625000
vt 0.875000 0.125000
vt 0.875000 0.062500
vt 0.906250 0.500000
vt 0.875000 0.562500
vt 0.875000 0.937500
vt 0.890625 1.000000
vt 0.890625 0.000000
vt 0.875000 0.437500
vt 0.875000 0.875000
vt 0.843750 0.062500
vt 0.875000 0.500000
vt 0.843750 0.562500
vt 0.843750 0.937500
vt 0.859375 1.000000
vt 0.859375 0.000000
vt 0.843750 0.437500
vt 0.843750 0.375000
vt 0.875000 0.812500
vt 0.843750 0.875000
vt 0.875000 0.312500
vt 0.843750 0.750000
vt 0.843750 0.250000
vt 0.875000 0.687500
vt 0.875000 0.187500
vt 0.843750 0.625000
vt 0.843750 0.125000
vt 0.812500 0.750000
vt 0.843750 0.812500
vt 0.812500 0.250000
vt 0.843750 0.312500
vt 0.843750 0.687500
vt 0.843750 0.187500
vt 0.812500 0.625000
vt 0.812500 0.125000
vt 0.843750 0.500000
vt 0.812500 0.562500
vt 0.812500 0.937500
vt 0.828125 1.000000
vt 0.828125 0.000000
vt 0.812500 0.062500
vt 0.812500 0.437500
vt 0.812500 0.875000
vt 0.812500 0.375000
vt 0.812500 0.500000
vt 0.781250 0.562500
vt 0.781250 0.937500
vt 0.796875 1.000000
vt 0.796875 0.000000
vt 0.781250 0.062500
vt 0.781250 0.437500
vt 0.781250 0.875000
vt 0.781250 0.375000
vt 0.812500 0.812500
vt 0.812500 0.312500
vt 0.781250 0.750000
vt 0.781250 0.250000
vt 0.812500 0.687500
vt 0.812500 0.187500
vt 0.781250 0.625000
vt 0.781250 0.125000
vt 0.781250 0.312500
vt 0.781250 0.687500
vt 0.781250 0.187500
vt 0.781250 0.500000
vt 0.765625 1.000000
vt 0.765625 0.000000
vt 0.781250 0.812500
vt 0.000000 0.812500
vt 0.000000 0.312500
vt 0.000000 0.687500
vt 0.000000 0.187500
vt 0.000000 0.500000
s 0
usemtl Material.001
f 476/1/1 9/2/1 1/3/1
f 479/4/2 17/5/2 6/6/2
f 2/7/3 10/8/3 476/1/3
f 19/9/4 479/4/4 480/10/4
f 477/11/5 11/12/5 2/7/5
f 20/13/6 480/10/6 481/14/6
f 3/15/7 12/16/7 477/11/7
f 21/17/8 481/14/8 482/18/8
f 14/19/9 3/15/9 4/20/9
f 474/21/10 7/22/10 82/23/10
f 308/24/11 21/17/11 482/18/11
f 15/25/12 4/20/12 5/26/12
f 475/27/13 7/22/13 474/21/13
f 16/28/14 5/26/14 478/29/14
f 1/3/15 8/30/15 475/27/15
f 17/5/16 478/29/16 6/6/16
f 24/31/17 8/30/17 9/2/17
f 32/32/18 16/28/18 17/5/18
f 25/33/19 9/2/19 10/8/19
f 18/34/20 32/32/20 17/5/20
f 26/35/21 10/8/21 11/12/21
f 34/36/22 18/34/22 19/9/22
f 27/37/23 11/12/23 12/16/23
f 20/13/24 34/36/24 19/9/24
f 28/38/25 12/16/25 13/39/25
f 36/40/26 20/13/26 21/17/26
f 29/41/27 13/39/27 14/19/27
f 7/22/28 22/42/28 82/43/28
f 308/44/29 36/40/29 21/17/29
f 30/45/30 14/19/30 15/25/30
f 23/46/31 7/22/31 8/30/31
f 31/47/32 15/25/32 16/28/32
f 28/38/33 42/48/33 27/37/33
f 51/49/34 35/50/34 36/40/34
f 29/41/35 43/51/35 28/38/35
f 22/42/36 37/52/36 82/53/36
f 308/54/37 51/49/37 36/40/37
f 45/55/38 29/41/38 30/45/38
f 23/46/39 37/52/39 22/42/39
f 46/56/40 30/45/40 31/47/40
f 39/57/41 23/46/41 24/31/41
f 32/32/42 46/56/42 31/47/42
f 40/58/43 24/31/43 25/33/43
f 48/59/44 32/32/44 33/60/44
f 26/35/45 40/58/45 25/33/45
f 34/36/46 48/59/46 33/60/46
f 42/48/47 26/35/47 27/37/47
f 35/50/48 49/61/48 34/36/48
f 47/62/49 61/63/49 46/56/49
f 55/64/50 39/57/50 40/58/50
f 63/65/51 47/62/51 48/59/51
f 56/66/52 40/58/52 41/67/52
f 49/61/53 63/65/53 48/59/53
f 57/68/54 41/67/54 42/48/54
f 50/69/55 64/70/55 49/61/55
f 43/51/56 57/68/56 42/48/56
f 51/49/57 65/71/57 50/69/57
f 44/72/58 58/73/58 43/51/58
f 37/52/59 52/74/59 82/75/59
f 308/76/60 66/77/60 51/49/60
f 60/78/61 44/72/61 45/55/61
f 53/79/62 37/52/62 38/80/62
f 61/63/63 45/55/63 46/56/63
f 54/81/64 38/80/64 39/57/64
f 81/82/65 65/71/65 66/77/65
f 59/83/66 73/84/66 58/73/66
f 52/74/67 67/85/67 82/86/67
f 308/87/68 81/82/68 66/77/68
f 75/88/69 59/83/69 60/78/69
f 68/89/70 52/74/70 53/79/70
f 76/90/71 60/78/71 61/63/71
f 69/91/72 53/79/72 54/81/72
f 62/92/73 76/90/73 61/63/73
f 70/93/74 54/81/74 55/64/74
f 78/94/75 62/92/75 63/65/75
f 71/95/76 55/64/76 56/66/76
f 64/70/77 78/94/77 63/65/77
f 72/96/78 56/66/78 57/68/78
f 80/97/79 64/70/79 65/71/79
f 58/73/80 72/96/80 57/68/80
f 86/98/81 69/91/81 70/93/81
f 94/99/82 77/100/82 78/94/82
f 71/95/83 86/98/83 70/93/83
f 79/101/84 94/99/84 78/94/84
f 88/102/85 71/95/85 72/96/85
f 80/97/86 95/103/86 79/101/86
f 73/84/87 88/102/87 72/96/87
f 81/82/88 96/104/88 80/97/88
f 74/105/89 89/106/89 73/84/89
f 67/85/90 83/107/90 82/108/90
f 308/109/91 97/110/91 81/82/91
f 91/111/92 74/105/92 75/88/92
f 84/112/93 67/85/93 68/89/93
f 92/113/94 75/88/94 76/90/94
f 85/114/95 68/89/95 69/91/95
f 77/100/96 92/113/96 76/90/96
f 90/115/97 104/116/97 89/106/97
f 83/107/98 98/117/98 82/118/98
f 308/119/99 112/120/99 97/110/99
f 106/121/100 90/115/100 91/111/100
f 84/112/101 98/117/101 83/107/101
f 107/122/102 91/111/102 92/113/102
f 85/114/103 99/123/103 84/112/103
f 93/124/104 107/122/104 92/113/104
f 101/125/105 85/114/105 86/98/105
f 109/126/106 93/124/106 94/99/106
f 87/127/107 101/125/107 86/98/107
f 110/128/108 94/99/108 95/103/108
f 103/129/109 87/127/109 88/102/109
f 111/130/110 95/103/110 96/104/110
f 89/106/111 103/129/111 88/102/111
f 112/120/112 96/104/112 97/110/112
f 124/131/113 108/132/113 109/126/113
f 102/133/114 116/134/114 101/125/114
f 110/128/115 124/131/115 109/126/115
f 118/135/116 102/133/116 103/129/116
f 111/130/117 125/136/117 110/128/117
f 104/116/118 118/135/118 103/129/118
f 127/137/119 111/130/119 112/120/119
f 105/138/120 119/139/120 104/116/120
f 98/117/121 113/140/121 82/141/121
f 308/142/122 127/137/122 112/120/122
f 121/143/123 105/138/123 106/121/123
f 99/123/124 113/140/124 98/117/124
f 122/144/125 106/121/125 107/122/125
f 115/145/126 99/123/126 100/146/126
f 108/132/127 122/144/127 107/122/127
f 116/134/128 100/146/128 101/125/128
f 308/147/129 142/148/129 127/137/129
f 136/149/130 120/150/130 121/143/130
f 129/151/131 113/140/131 114/152/131
f 137/153/132 121/143/132 122/144/132
f 130/154/133 114/152/133 115/145/133
f 123/155/134 137/153/134 122/144/134
f 131/156/135 115/145/135 116/134/135
f 139/157/136 123/155/136 124/131/136
f 117/158/137 131/156/137 116/134/137
f 140/159/138 124/131/138 125/136/138
f 133/160/139 117/158/139 118/135/139
f 141/161/140 125/136/140 126/162/140
f 119/139/141 133/160/141 118/135/141
f 127/137/142 141/161/142 126/162/142
f 120/150/143 134/163/143 119/139/143
f 113/140/144 128/164/144 82/165/144
f 140/159/145 154/166/145 139/157/145
f 148/167/146 132/168/146 133/160/146
f 141/161/147 155/169/147 140/159/147
f 134/163/148 148/167/148 133/160/148
f 142/148/149 156/170/149 141/161/149
f 135/171/150 149/172/150 134/163/150
f 128/164/151 143/173/151 82/174/151
f 308/175/152 157/176/152 142/148/152
f 151/177/153 135/171/153 136/149/153
f 144/178/154 128/164/154 129/151/154
f 152/179/155 136/149/155 137/153/155
f 145/180/156 129/151/156 130/154/156
f 138/181/157 152/179/157 137/153/157
f 146/182/158 130/154/158 131/156/158
f 154/166/159 138/181/159 139/157/159
f 132/168/160 146/182/160 131/156/160
f 159/183/161 143/173/161 144/178/161
f 167/184/162 151/177/162 152/179/162
f 160/185/163 144/178/163 145/180/163
f 153/186/164 167/184/164 152/179/164
f 161/187/165 145/180/165 146/182/165
f 169/188/166 153/186/166 154/166/166
f 147/189/167 161/187/167 146/182/167
f 155/169/168 169/188/168 154/166/168
f 163/190/169 147/189/169 148/167/169
f 156/170/170 170/191/170 155/169/170
f 149/172/171 163/190/171 148/167/171
f 157/176/172 171/192/172 156/170/172
f 150/193/173 164/194/173 149/172/173
f 143/173/174 158/195/174 82/196/174
f 308/197/175 172/198/175 157/176/175
f 166/199/176 150/193/176 151/177/176
f 178/200/177 162/201/177 163/190/177
f 171/192/178 185/202/178 170/191/178
f 164/194/179 178/200/179 163/190/179
f 172/198/180 186/203/180 171/192/180
f 165/204/181 179/205/181 164/194/181
f 158/195/182 173/206/182 82/207/182
f 308/208/183 187/209/183 172/198/183
f 181/210/184 165/204/184 166/199/184
f 174/211/185 158/195/185 159/183/185
f 182/212/186 166/199/186 167/184/186
f 175/213/187 159/183/187 160/185/187
f 168/214/188 182/212/188 167/184/188
f 176/215/189 160/185/189 161/187/189
f 184/216/190 168/214/190 169/188/190
f 162/201/191 176/215/191 161/187/191
f 185/202/192 169/188/192 170/191/192
f 197/217/193 181/210/193 182/212/193
f 175/213/194 189/218/194 174/211/194
f 183/219/195 197/217/195 182/212/195
f 191/220/196 175/213/196 176/215/196
f 199/221/197 183/219/197 184/216/197
f 192/222/198 176/215/198 177/223/198
f 185/202/199 199/221/199 184/216/199
f 193/224/200 177/223/200 178/200/200
f 201/225/201 185/202/201 186/203/201
f 179/205/202 193/224/202 178/200/202
f 202/226/203 186/203/203 187/209/203
f 180/227/204 194/228/204 179/205/204
f 173/206/205 188/229/205 82/230/205
f 308/231/206 202/226/206 187/209/206
f 196/232/207 180/227/207 181/210/207
f 174/211/208 188/229/208 173/206/208
f 201/225/209 215/233/209 200/234/209
f 194/228/210 208/235/210 193/224/210
f 217/236/211 201/225/211 202/226/211
f 195/237/212 209/238/212 194/228/212
f 188/229/213 203/239/213 82/240/213
f 308/241/214 217/236/214 202/226/214
f 211/242/215 195/237/215 196/232/215
f 204/243/216 188/229/216 189/218/216
f 212/244/217 196/232/217 197/217/217
f 205/245/218 189/218/218 190/246/218
f 198/247/219 212/244/219 197/217/219
f 206/248/220 190/246/220 191/220/220
f 214/249/221 198/247/221 199/221/221
f 192/222/222 206/248/222 191/220/222
f 200/234/223 214/249/223 199/221/223
f 208/235/224 192/222/224 193/224/224
f 220/250/225 204/243/225 205/245/225
f 213/251/226 227/252/226 212/244/226
f 221/253/227 205/245/227 206/248/227
f 229/254/228 213/251/228 214/249/228
f 207/255/229 221/253/229 206/248/229
f 215/233/230 229/254/230 214/249/230
f 223/256/231 207/255/231 208/235/231
f 216/257/232 230/258/232 215/233/232
f 209/238/233 223/256/233 208/235/233
f 232/259/234 216/257/234 217/236/234
f 210/260/235 224/261/235 209/238/235
f 203/239/236 218/262/236 82/263/236
f 308/264/237 232/259/237 217/236/237
f 226/265/238 210/260/238 211/242/238
f 219/266/239 203/239/239 204/243/239
f 227/252/240 211/242/240 212/244/240
f 224/261/241 238/267/241 223/256/241
f 247/268/242 231/269/242 232/259/242
f 225/270/243 239/271/243 224/261/243
f 218/262/244 233/272/244 82/273/244
f 308/274/245 247/268/245 232/259/245
f 241/275/246 225/270/246 226/265/246
f 219/266/247 233/272/247 218/262/247
f 242/276/248 226/265/248 227/252/248
f 220/250/249 234/277/249 219/266/249
f 228/278/250 242/276/250 227/252/250
f 236/279/251 220/250/251 221/253/251
f 244/280/252 228/278/252 229/254/252
f 222/281/253 236/279/253 221/253/253
f 230/258/254 244/280/254 229/254/254
f 238/267/255 222/281/255 223/256/255
f 246/282/256 230/258/256 231/269/256
f 243/283/257 257/284/257 242/276/257
f 251/285/258 235/286/258 236/279/258
f 259/287/259 243/283/259 244/280/259
f 252/288/260 236/279/260 237/289/260
f 245/290/261 259/287/261 244/280/261
f 253/291/262 237/289/262 238/267/262
f 261/292/263 245/290/263 246/282/263
f 239/271/264 253/291/264 238/267/264
f 262/293/265 246/282/265 247/268/265
f 240/294/266 254/295/266 239/271/266
f 233/272/267 248/296/267 82/297/267
f 308/298/268 262/293/268 247/268/268
f 256/299/269 240/294/269 241/275/269
f 249/300/270 233/272/270 234/277/270
f 257/284/271 241/275/271 242/276/271
f 235/286/272 249/300/272 234/277/272
f 277/301/273 261/292/273 262/293/273
f 255/302/274 269/303/274 254/295/274
f 248/296/275 263/304/275 82/305/275
f 308/306/276 277/301/276 262/293/276
f 271/307/277 255/302/277 256/299/277
f 264/308/278 248/296/278 249/300/278
f 272/309/279 256/299/279 257/284/279
f 265/310/280 249/300/280 250/311/280
f 258/312/281 272/309/281 257/284/281
f 266/313/282 250/311/282 251/285/282
f 274/314/283 258/312/283 259/287/283
f 252/288/284 266/313/284 251/285/284
f 260/315/285 274/314/285 259/287/285
f 268/316/286 252/288/286 253/291/286
f 276/317/287 260/315/287 261/292/287
f 254/295/288 268/316/288 253/291/288
f 289/318/289 273/319/289 274/314/289
f 267/320/290 281/321/290 266/313/290
f 275/322/291 289/318/291 274/314/291
f 283/323/292 267/320/292 268/316/292
f 291/324/293 275/322/293 276/317/293
f 269/303/294 283/323/294 268/316/294
f 277/301/295 291/324/295 276/317/295
f 270/325/296 284/326/296 269/303/296
f 263/304/297 278/327/297 82/328/297
f 308/329/298 292/330/298 277/301/298
f 286/331/299 270/325/299 271/307/299
f 264/308/300 278/327/300 263/304/300
f 287/332/301 271/307/301 272/309/301
f 265/310/302 279/333/302 264/308/302
f 273/319/303 287/332/303 272/309/303
f 281/321/304 265/310/304 266/313/304
f 278/327/305 293/334/305 82/335/305
f 308/336/306 307/337/306 292/330/306
f 301/338/307 285/339/307 286/331/307
f 294/340/308 278/327/308 279/333/308
f 302/341/309 286/331/309 287/332/309
f 295/342/310 279/333/310 280/343/310
f 288/344/311 302/341/311 287/332/311
f 296/345/312 280/343/312 281/321/312
f 304/346/313 288/344/313 289/318/313
f 282/347/314 296/345/314 281/321/314
f 290/348/315 304/346/315 289/318/315
f 298/349/316 282/347/316 283/323/316
f 306/350/317 290/348/317 291/324/317
f 284/326/318 298/349/318 283/323/318
f 292/330/319 306/350/319 291/324/319
f 285/339/320 299/351/320 284/326/320
f 297/352/321 312/353/321 296/345/321
f 305/354/322 320/355/322 304/346/322
f 314/356/323 297/352/323 298/349/323
f 322/357/324 305/354/324 306/350/324
f 299/351/325 314/356/325 298/349/325
f 323/358/326 306/350/326 307/337/326
f 300/359/327 315/360/327 299/351/327
f 293/334/328 309/361/328 82/362/328
f 308/363/329 323/358/329 307/337/329
f 317/364/330 300/359/330 301/338/330
f 310/365/331 293/334/331 294/340/331
f 318/366/332 301/338/332 302/341/332
f 295/342/333 310/365/333 294/340/333
f 303/367/334 318/366/334 302/341/334
f 312/353/335 295/342/335 296/345/335
f 320/355/336 303/367/336 304/346/336
f 332/368/337 316/369/337 317/364/337
f 325/370/338 309/361/338 310/365/338
f 333/371/339 317/364/339 318/366/339
f 326/372/340 310/365/340 311/373/340
f 319/374/341 333/371/341 318/366/341
f 327/375/342 311/373/342 312/353/342
f 335/376/343 319/374/343 320/355/343
f 328/377/344 312/353/344 313/378/344
f 321/379/345 335/376/345 320/355/345
f 329/380/346 313/378/346 314/356/346
f 337/381/347 321/379/347 322/357/347
f 315/360/348 329/380/348 314/356/348
f 338/382/349 322/357/349 323/358/349
f 316/369/350 330/383/350 315/360/350
f 309/361/351 324/384/351 82/385/351
f 308/386/352 338/382/352 323/358/352
f 336/387/353 350/388/353 335/376/353
f 344/389/354 328/377/354 329/380/354
f 352/390/355 336/387/355 337/381/355
f 330/383/356 344/389/356 329/380/356
f 338/382/357 352/390/357 337/381/357
f 331/391/358 345/392/358 330/383/358
f 324/384/359 339/393/359 82/394/359
f 308/395/360 353/396/360 338/382/360
f 347/397/361 331/391/361 332/368/361
f 340/398/362 324/384/362 325/370/362
f 348/399/363 332/368/363 333/371/363
f 326/372/364 340/398/364 325/370/364
f 334/400/365 348/399/365 333/371/365
f 342/401/366 326/372/366 327/375/366
f 350/388/367 334/400/367 335/376/367
f 328/377/368 342/401/368 327/375/368
f 355/402/369 339/393/369 340/398/369
f 363/403/370 347/397/370 348/399/370
f 341/404/371 355/402/371 340/398/371
f 349/405/372 363/403/372 348/399/372
f 357/406/373 341/404/373 342/401/373
f 365/407/374 349/405/374 350/388/374
f 343/408/375 357/406/375 342/401/375
f 351/409/376 365/407/376 350/388/376
f 359/410/377 343/408/377 344/389/377
f 367/411/378 351/409/378 352/390/378
f 345/392/379 359/410/379 344/389/379
f 368/412/380 352/390/380 353/396/380
f 346/413/381 360/414/381 345/392/381
f 339/393/382 354/415/382 82/416/382
f 308/417/383 368/412/383 353/396/383
f 362/418/384 346/413/384 347/397/384
f 374/419/385 358/420/385 359/421/385
f 382/422/386 366/423/386 367/424/386
f 360/425/387 374/419/387 359/421/387
f 383/426/388 367/424/388 368/427/388
f 361/428/389 375/429/389 360/425/389
f 354/430/390 369/431/390 82/432/390
f 308/433/391 383/426/391 368/427/391
f 377/434/392 361/428/392 362/435/392
f 370/436/393 354/430/393 355/437/393
f 378/438/394 362/435/394 363/439/394
f 356/440/395 370/436/395 355/437/395
f 364/441/396 378/438/396 363/439/396
f 372/442/397 356/440/397 357/443/397
f 380/444/398 364/441/398 365/445/398
f 358/420/399 372/442/399 357/443/399
f 366/423/400 380/444/400 365/445/400
f 393/446/401 377/434/401 378/438/401
f 371/447/402 385/448/402 370/436/402
f 379/449/403 393/446/403 378/438/403
f 387/450/404 371/447/404 372/442/404
f 395/451/405 379/449/405 380/444/405
f 373/452/406 387/450/406 372/442/406
f 381/453/407 395/451/407 380/444/407
f 389/454/408 373/452/408 374/419/408
f 397/455/409 381/453/409 382/422/409
f 375/429/410 389/454/410 374/419/410
f 398/456/411 382/422/411 383/426/411
f 376/457/412 390/458/412 375/429/412
f 369/431/413 384/459/413 82/460/413
f 308/461/414 398/456/414 383/426/414
f 392/462/415 376/457/415 377/434/415
f 385/448/416 369/431/416 370/436/416
f 412/463/417 396/464/417 397/455/417
f 390/458/418 404/465/418 389/454/418
f 398/456/419 412/463/419 397/455/419
f 391/466/420 405/467/420 390/458/420
f 384/459/421 399/468/421 82/469/421
f 308/470/422 413/471/422 398/456/422
f 407/472/423 391/466/423 392/462/423
f 400/473/424 384/459/424 385/448/424
f 408/474/425 392/462/425 393/446/425
f 386/475/426 400/473/426 385/448/426
f 394/476/427 408/474/427 393/446/427
f 402/477/428 386/475/428 387/450/428
f 410/478/429 394/476/429 395/451/429
f 388/479/430 402/477/430 387/450/430
f 396/464/431 410/478/431 395/451/431
f 404/465/432 388/479/432 389/454/432
f 409/480/433 423/481/433 408/474/433
f 417/482/434 401/483/434 402/477/434
f 425/484/435 409/480/435 410/478/435
f 403/485/436 417/482/436 402/477/436
f 411/486/437 425/484/437 410/478/437
f 419/487/438 403/485/438 404/465/438
f 427/488/439 411/486/439 412/463/439
f 405/467/440 419/487/440 404/465/440
f 428/489/441 412/463/441 413/471/441
f 406/490/442 420/491/442 405/467/442
f 399/468/443 414/492/443 82/493/443
f 308/494/444 428/489/444 413/471/444
f 422/495/445 406/490/445 407/472/445
f 415/496/446 399/468/446 400/473/446
f 423/481/447 407/472/447 408/474/447
f 401/483/448 415/496/448 400/473/448
f 443/497/449 427/488/449 428/489/449
f 421/498/450 435/499/450 420/491/450
f 414/492/451 429/500/451 82/501/451
f 308/502/452 443/497/452 428/489/452
f 437/503/453 421/498/453 422/495/453
f 415/496/454 429/500/454 414/492/454
f 438/504/455 422/495/455 423/481/455
f 416/505/456 430/506/456 415/496/456
f 424/507/457 438/504/457 423/481/457
f 432/508/458 416/505/458 417/482/458
f 440/509/459 424/507/459 425/484/459
f 418/510/460 432/508/460 417/482/460
f 426/511/461 440/509/461 425/484/461
f 434/512/462 418/510/462 419/487/462
f 442/513/463 426/511/463 427/488/463
f 420/491/464 434/512/464 419/487/464
f 447/514/465 431/515/465 432/508/465
f 455/516/466 439/517/466 440/509/466
f 433/518/467 447/514/467 432/508/467
f 441/519/468 455/516/468 440/509/468
f 449/520/469 433/518/469 434/512/469
f 457/521/470 441/519/470 442/513/470
f 435/499/471 449/520/471 434/512/471
f 443/497/472 457/521/472 442/513/472
f 436/522/473 450/523/473 435/499/473
f 429/500/474 444/524/474 82/525/474
f 308/526/475 458/527/475 443/497/475
f 452/528/476 436/522/476 437/503/476
f 445/529/477 429/500/477 430/506/477
f 453/530/478 437/503/478 438/504/478
f 431/515/479 445/529/479 430/506/479
f 439/517/480 453/530/480 438/504/480
f 451/531/481 465/532/481 450/523/481
f 444/524/482 459/533/482 82/534/482
f 308/535/483 473/536/483 458/527/483
f 467/537/484 451/531/484 452/528/484
f 460/538/485 444/524/485 445/529/485
f 468/539/486 452/528/486 453/530/486
f 446/540/487 460/538/487 445/529/487
f 454/541/488 468/539/488 453/530/488
f 462/542/489 446/540/489 447/514/489
f 470/543/490 454/541/490 455/516/490
f 448/544/491 462/542/491 447/514/491
f 456/545/492 470/543/492 455/516/492
f 464/546/493 448/544/493 449/520/493
f 472/547/494 456/545/494 457/521/494
f 450/523/495 464/546/495 449/520/495
f 473/536/496 457/521/496 458/527/496
f 479/4/497 469/548/497 470/543/497
f 463/549/498 476/1/498 462/542/498
f 471/550/499 479/4/499 470/543/499
f 464/546/500 2/7/500 463/549/500
f 472/547/501 480/10/501 471/550/501
f 465/532/502 477/11/502 464/546/502
f 473/536/503 481/14/503 472/547/503
f 466/551/504 3/15/504 465/532/504
f 459/533/505 474/21/505 82/552/505
f 308/553/506 482/18/506 473/536/506
f 5/26/507 466/551/507 467/537/507
f 475/27/508 459/533/508 460/538/508
f 478/29/509 467/537/509 468/539/509
f 461/554/510 475/27/510 460/538/510
f 6/6/511 468/539/511 469/548/511
f 462/542/512 1/3/512 461/554/512
f 476/1/1 10/8/1 9/2/1
f 479/4/2 18/34/2 17/5/2
f 2/7/3 11/12/3 10/8/3
f 19/9/4 18/34/4 479/4/4
f 477/11/5 12/16/5 11/12/5
f 20/13/6 19/9/6 480/10/6
f 3/15/7 13/39/7 12/16/7
f 21/17/8 20/13/8 481/14/8
f 14/19/513 13/39/513 3/15/513
f 15/25/514 14/19/514 4/20/514
f 475/27/13 8/30/13 7/22/13
f 16/28/14 15/25/14 5/26/14
f 1/3/15 9/2/15 8/30/15
f 17/5/16 16/28/16 478/29/16
f 24/31/17 23/46/17 8/30/17
f 32/32/18 31/47/18 16/28/18
f 25/33/19 24/31/19 9/2/19
f 18/34/20 33/60/20 32/32/20
f 26/35/21 25/33/21 10/8/21
f 34/36/22 33/60/22 18/34/22
f 27/37/23 26/35/23 11/12/23
f 20/13/24 35/50/24 34/36/24
f 28/38/25 27/37/25 12/16/25
f 36/40/26 35/50/26 20/13/26
f 29/41/515 28/38/515 13/39/515
f 30/45/516 29/41/516 14/19/516
f 23/46/31 22/42/31 7/22/31
f 31/47/32 30/45/32 15/25/32
f 28/38/33 43/51/33 42/48/33
f 51/49/34 50/69/34 35/50/34
f 29/41/517 44/72/517 43/51/517
f 45/55/38 44/72/38 29/41/38
f 23/46/39 38/80/39 37/52/39
f 46/56/40 45/55/40 30/45/40
f 39/57/518 38/80/518 23/46/518
f 32/32/42 47/62/42 46/56/42
f 40/58/43 39/57/43 24/31/43
f 48/59/44 47/62/44 32/32/44
f 26/35/45 41/67/45 40/58/45
f 34/36/46 49/61/46 48/59/46
f 42/48/47 41/67/47 26/35/47
f 35/50/519 50/69/519 49/61/519
f 47/62/49 62/92/49 61/63/49
f 55/64/50 54/81/50 39/57/50
f 63/65/51 62/92/51 47/62/51
f 56/66/52 55/64/52 40/58/52
f 49/61/53 64/70/53 63/65/53
f 57/68/54 56/66/54 41/67/54
f 50/69/55 65/71/55 64/70/55
f 43/51/56 58/73/56 57/68/56
f 51/49/57 66/77/57 65/71/57
f 44/72/58 59/83/58 58/73/58
f 60/78/61 59/83/61 44/72/61
f 53/79/62 52/74/62 37/52/62
f 61/63/63 60/78/63 45/55/63
f 54/81/64 53/79/64 38/80/64
f 81/82/65 80/97/65 65/71/65
f 59/83/66 74/105/66 73/84/66
f 75/88/69 74/105/69 59/83/69
f 68/89/70 67/85/70 52/74/70
f 76/90/71 75/88/71 60/78/71
f 69/91/72 68/89/72 53/79/72
f 62/92/73 77/100/73 76/90/73
f 70/93/74 69/91/74 54/81/74
f 78/94/75 77/100/75 62/92/75
f 71/95/76 70/93/76 55/64/76
f 64/70/77 79/101/77 78/94/77
f 72/96/78 71/95/78 56/66/78
f 80/97/79 79/101/79 64/70/79
f 58/73/80 73/84/80 72/96/80
f 86/98/81 85/114/81 69/91/81
f 94/99/82 93/124/82 77/100/82
f 71/95/83 87/127/83 86/98/83
f 79/101/84 95/103/84 94/99/84
f 88/102/85 87/127/85 71/95/85
f 80/97/86 96/104/86 95/103/86
f 73/84/87 89/106/87 88/102/87
f 81/82/88 97/110/88 96/104/88
f 74/105/89 90/115/89 89/106/89
f 91/111/92 90/115/92 74/105/92
f 84/112/93 83/107/93 67/85/93
f 92/113/94 91/111/94 75/88/94
f 85/114/95 84/112/95 68/89/95
f 77/100/96 93/124/96 92/113/96
f 90/115/97 105/138/97 104/116/97
f 106/121/100 105/138/100 90/115/100
f 84/112/101 99/123/101 98/117/101
f 107/122/102 106/121/102 91/111/102
f 85/114/103 100/146/103 99/123/103
f 93/124/104 108/132/104 107/122/104
f 101/125/105 100/146/105 85/114/105
f 109/126/106 108/132/106 93/124/106
f 87/127/107 102/133/107 101/125/107
f 110/128/108 109/126/108 94/99/108
f 103/129/109 102/133/109 87/127/109
f 111/130/110 110/128/110 95/103/110
f 89/106/111 104/116/111 103/129/111
f 112/120/112 111/130/112 96/104/112
f 124/131/113 123/155/113 108/132/113
f 102/133/114 117/158/114 116/134/114
f 110/128/115 125/136/115 124/131/115
f 118/135/116 117/158/116 102/133/116
f 111/130/117 126/162/117 125/136/117
f 104/116/118 119/139/118 118/135/118
f 127/137/119 126/162/119 111/130/119
f 105/138/120 120/150/120 119/139/120
f 121/143/123 120/150/123 105/138/123
f 99/123/124 114/152/124 113/140/124
f 122/144/125 121/143/125 106/121/125
f 115/145/126 114/152/126 99/123/126
f 108/132/127 123/155/127 122/144/127
f 116/134/128 115/145/128 100/146/128
f 136/149/520 135/171/520 120/150/520
f 129/151/131 128/164/131 113/140/131
f 137/153/132 136/149/132 121/143/132
f 130/154/133 129/151/133 114/152/133
f 123/155/134 138/181/134 137/153/134
f 131/156/135 130/154/135 115/145/135
f 139/157/136 138/181/136 123/155/136
f 117/158/137 132/168/137 131/156/137
f 140/159/138 139/157/138 124/131/138
f 133/160/139 132/168/139 117/158/139
f 141/161/140 140/159/140 125/136/140
f 119/139/141 134/163/141 133/160/141
f 127/137/142 142/148/142 141/161/142
f 120/150/521 135/171/521 134/163/521
f 140/159/145 155/169/145 154/166/145
f 148/167/146 147/189/146 132/168/146
f 141/161/147 156/170/147 155/169/147
f 134/163/148 149/172/148 148/167/148
f 142/148/149 157/176/149 156/170/149
f 135/171/150 150/193/150 149/172/150
f 151/177/153 150/193/153 135/171/153
f 144/178/154 143/173/154 128/164/154
f 152/179/155 151/177/155 136/149/155
f 145/180/156 144/178/156 129/151/156
f 138/181/157 153/186/157 152/179/157
f 146/182/158 145/180/158 130/154/158
f 154/166/159 153/186/159 138/181/159
f 132/168/160 147/189/160 146/182/160
f 159/183/161 158/195/161 143/173/161
f 167/184/162 166/199/162 151/177/162
f 160/185/163 159/183/163 144/178/163
f 153/186/164 168/214/164 167/184/164
f 161/187/165 160/185/165 145/180/165
f 169/188/166 168/214/166 153/186/166
f 147/189/167 162/201/167 161/187/167
f 155/169/168 170/191/168 169/188/168
f 163/190/169 162/201/169 147/189/169
f 156/170/170 171/192/170 170/191/170
f 149/172/171 164/194/171 163/190/171
f 157/176/172 172/198/172 171/192/172
f 150/193/173 165/204/173 164/194/173
f 166/199/176 165/204/176 150/193/176
f 178/200/177 177/223/177 162/201/177
f 171/192/178 186/203/178 185/202/178
f 164/194/179 179/205/179 178/200/179
f 172/198/180 187/209/180 186/203/180
f 165/204/181 180/227/181 179/205/181
f 181/210/184 180/227/184 165/204/184
f 174/211/185 173/206/185 158/195/185
f 182/212/186 181/210/186 166/199/186
f 175/213/187 174/211/187 159/183/187
f 168/214/188 183/219/188 182/212/188
f 176/215/189 175/213/189 160/185/189
f 184/216/190 183/219/190 168/214/190
f 162/201/191 177/223/191 176/215/191
f 185/202/192 184/216/192 169/188/192
f 197/217/193 196/232/193 181/210/193
f 175/213/194 190/246/194 189/218/194
f 183/219/195 198/247/195 197/217/195
f 191/220/196 190/246/196 175/213/196
f 199/221/197 198/247/197 183/219/197
f 192/222/198 191/220/198 176/215/198
f 185/202/199 200/234/199 199/221/199
f 193/224/200 192/222/200 177/223/200
f 201/225/201 200/234/201 185/202/201
f 179/205/202 194/228/202 193/224/202
f 202/226/203 201/225/203 186/203/203
f 180/227/204 195/237/204 194/228/204
f 196/232/207 195/237/207 180/227/207
f 174/211/208 189/218/208 188/229/208
f 201/225/522 216/257/522 215/233/522
f 194/228/210 209/238/210 208/235/210
f 217/236/211 216/257/211 201/225/211
f 195/237/212 210/260/212 209/238/212
f 211/242/215 210/260/215 195/237/215
f 204/243/216 203/239/216 188/229/216
f 212/244/217 211/242/217 196/232/217
f 205/245/218 204/243/218 189/218/218
f 198/247/219 213/251/219 212/244/219
f 206/248/220 205/245/220 190/246/220
f 214/249/221 213/251/221 198/247/221
f 192/222/222 207/255/222 206/248/222
f 200/234/223 215/233/223 214/249/223
f 208/235/224 207/255/224 192/222/224
f 220/250/225 219/266/225 204/243/225
f 213/251/226 228/278/226 227/252/226
f 221/253/227 220/250/227 205/245/227
f 229/254/228 228/278/228 213/251/228
f 207/255/229 222/281/229 221/253/229
f 215/233/230 230/258/230 229/254/230
f 223/256/231 222/281/231 207/255/231
f 216/257/232 231/269/232 230/258/232
f 209/238/233 224/261/233 223/256/233
f 232/259/234 231/269/234 216/257/234
f 210/260/235 225/270/235 224/261/235
f 226/265/238 225/270/238 210/260/238
f 219/266/239 218/262/239 203/239/239
f 227/252/240 226/265/240 211/242/240
f 224/261/241 239/271/241 238/267/241
f 247/268/242 246/282/242 231/269/242
f 225/270/523 240/294/523 239/271/523
f 241/275/246 240/294/246 225/270/246
f 219/266/247 234/277/247 233/272/247
f 242/276/248 241/275/248 226/265/248
f 220/250/249 235/286/249 234/277/249
f 228/278/250 243/283/250 242/276/250
f 236/279/251 235/286/251 220/250/251
f 244/280/252 243/283/252 228/278/252
f 222/281/253 237/289/253 236/279/253
f 230/258/254 245/290/254 244/280/254
f 238/267/255 237/289/255 222/281/255
f 246/282/256 245/290/256 230/258/256
f 243/283/257 258/312/257 257/284/257
f 251/285/258 250/311/258 235/286/258
f 259/287/259 258/312/259 243/283/259
f 252/288/260 251/285/260 236/279/260
f 245/290/261 260/315/261 259/287/261
f 253/291/262 252/288/262 237/289/262
f 261/292/263 260/315/263 245/290/263
f 239/271/264 254/295/264 253/291/264
f 262/293/265 261/292/265 246/282/265
f 240/294/266 255/302/266 254/295/266
f 256/299/269 255/302/269 240/294/269
f 249/300/270 248/296/270 233/272/270
f 257/284/271 256/299/271 241/275/271
f 235/286/272 250/311/272 249/300/272
f 277/301/273 276/317/273 261/292/273
f 255/302/274 270/325/274 269/303/274
f 271/307/277 270/325/277 255/302/277
f 264/308/278 263/304/278 248/296/278
f 272/309/279 271/307/279 256/299/279
f 265/310/280 264/308/280 249/300/280
f 258/312/281 273/319/281 272/309/281
f 266/313/282 265/310/282 250/311/282
f 274/314/283 273/319/283 258/312/283
f 252/288/284 267/320/284 266/313/284
f 260/315/285 275/322/285 274/314/285
f 268/316/286 267/320/286 252/288/286
f 276/317/287 275/322/287 260/315/287
f 254/295/288 269/303/288 268/316/288
f 289/318/289 288/344/289 273/319/289
f 267/320/290 282/347/290 281/321/290
f 275/322/291 290/348/291 289/318/291
f 283/323/292 282/347/292 267/320/292
f 291/324/524 290/348/524 275/322/524
f 269/303/294 284/326/294 283/323/294
f 277/301/295 292/330/295 291/324/295
f 270/325/296 285/339/296 284/326/296
f 286/331/299 285/339/299 270/325/299
f 264/308/300 279/333/300 278/327/300
f 287/332/301 286/331/301 271/307/301
f 265/310/525 280/343/525 279/333/525
f 273/319/303 288/344/303 287/332/303
f 281/321/304 280/343/304 265/310/304
f 301/338/307 300/359/307 285/339/307
f 294/340/308 293/334/308 278/327/308
f 302/341/309 301/338/309 286/331/309
f 295/342/310 294/340/310 279/333/310
f 288/344/311 303/367/311 302/341/311
f 296/345/312 295/342/312 280/343/312
f 304/346/313 303/367/313 288/344/313
f 282/347/314 297/352/314 296/345/314
f 290/348/315 305/354/315 304/346/315
f 298/349/316 297/352/316 282/347/316
f 306/350/317 305/354/317 290/348/317
f 284/326/318 299/351/318 298/349/318
f 292/330/319 307/337/319 306/350/319
f 285/339/320 300/359/320 299/351/320
f 297/352/321 313/378/321 312/353/321
f 305/354/322 321/379/322 320/355/322
f 314/356/323 313/378/323 297/352/323
f 322/357/324 321/379/324 305/354/324
f 299/351/325 315/360/325 314/356/325
f 323/358/326 322/357/326 306/350/326
f 300/359/327 316/369/327 315/360/327
f 317/364/330 316/369/330 300/359/330
f 310/365/331 309/361/331 293/334/331
f 318/366/332 317/364/332 301/338/332
f 295/342/333 311/373/333 310/365/333
f 303/367/334 319/374/334 318/366/334
f 312/353/335 311/373/335 295/342/335
f 320/355/336 319/374/336 303/367/336
f 332/368/337 331/391/337 316/369/337
f 325/370/338 324/384/338 309/361/338
f 333/371/339 332/368/339 317/364/339
f 326/372/340 325/370/340 310/365/340
f 319/374/341 334/400/341 333/371/341
f 327/375/342 326/372/342 311/373/342
f 335/376/343 334/400/343 319/374/343
f 328/377/344 327/375/344 312/353/344
f 321/379/345 336/387/345 335/376/345
f 329/380/346 328/377/346 313/378/346
f 337/381/347 336/387/347 321/379/347
f 315/360/348 330/383/348 329/380/348
f 338/382/526 337/381/526 322/357/526
f 316/369/350 331/391/350 330/383/350
f 336/387/353 351/409/353 350/388/353
f 344/389/354 343/408/354 328/377/354
f 352/390/355 351/409/355 336/387/355
f 330/383/356 345/392/356 344/389/356
f 338/382/357 353/396/357 352/390/357
f 331/391/358 346/413/358 345/392/358
f 347/397/361 346/413/361 331/391/361
f 340/398/362 339/393/362 324/384/362
f 348/399/363 347/397/363 332/368/363
f 326/372/364 341/404/364 340/398/364
f 334/400/365 349/405/365 348/399/365
f 342/401/366 341/404/366 326/372/366
f 350/388/367 349/405/367 334/400/367
f 328/377/368 343/408/368 342/401/368
f 355/402/369 354/415/369 339/393/369
f 363/403/370 362/418/370 347/397/370
f 341/404/371 356/555/371 355/402/371
f 349/405/372 364/556/372 363/403/372
f 357/406/373 356/555/373 341/404/373
f 365/407/374 364/556/374 349/405/374
f 343/408/375 358/557/375 357/406/375
f 351/409/376 366/558/376 365/407/376
f 359/410/377 358/557/377 343/408/377
f 367/411/378 366/558/378 351/409/378
f 345/392/379 360/414/379 359/410/379
f 368/412/380 367/411/380 352/390/380
f 346/413/381 361/559/381 360/414/381
f 362/418/384 361/559/384 346/413/384
f 374/419/385 373/452/385 358/420/385
f 382/422/386 381/453/386 366/423/386
f 360/425/387 375/429/387 374/419/387
f 383/426/388 382/422/388 367/424/388
f 361/428/527 376/457/527 375/429/527
f 377/434/528 376/457/528 361/428/528
f 370/436/393 369/431/393 354/430/393
f 378/438/394 377/434/394 362/435/394
f 356/440/395 371/447/395 370/436/395
f 364/441/396 379/449/396 378/438/396
f 372/442/397 371/447/397 356/440/397
f 380/444/398 379/449/398 364/441/398
f 358/420/399 373/452/399 372/442/399
f 366/423/400 381/453/400 380/444/400
f 393/446/401 392/462/401 377/434/401
f 371/447/402 386/475/402 385/448/402
f 379/449/403 394/476/403 393/446/403
f 387/450/404 386/475/404 371/447/404
f 395/451/405 394/476/405 379/449/405
f 373/452/406 388/479/406 387/450/406
f 381/453/407 396/464/407 395/451/407
f 389/454/408 388/479/408 373/452/408
f 397/455/409 396/464/409 381/453/409
f 375/429/410 390/458/410 389/454/410
f 398/456/411 397/455/411 382/422/411
f 376/457/412 391/466/412 390/458/412
f 392/462/415 391/466/415 376/457/415
f 385/448/416 384/459/416 369/431/416
f 412/463/417 411/486/417 396/464/417
f 390/458/418 405/467/418 404/465/418
f 398/456/529 413/471/529 412/463/529
f 391/466/420 406/490/420 405/467/420
f 407/472/423 406/490/423 391/466/423
f 400/473/424 399/468/424 384/459/424
f 408/474/425 407/472/425 392/462/425
f 386/475/426 401/483/426 400/473/426
f 394/476/427 409/480/427 408/474/427
f 402/477/428 401/483/428 386/475/428
f 410/478/429 409/480/429 394/476/429
f 388/479/430 403/485/430 402/477/430
f 396/464/431 411/486/431 410/478/431
f 404/465/432 403/485/432 388/479/432
f 409/480/433 424/507/433 423/481/433
f 417/482/434 416/505/434 401/483/434
f 425/484/435 424/507/435 409/480/435
f 403/485/436 418/510/436 417/482/436
f 411/486/437 426/511/437 425/484/437
f 419/487/438 418/510/438 403/485/438
f 427/488/439 426/511/439 411/486/439
f 405/467/440 420/491/440 419/487/440
f 428/489/441 427/488/441 412/463/441
f 406/490/442 421/498/442 420/491/442
f 422/495/445 421/498/445 406/490/445
f 415/496/530 414/492/530 399/468/530
f 423/481/447 422/495/447 407/472/447
f 401/483/448 416/505/448 415/496/448
f 443/497/449 442/513/449 427/488/449
f 421/498/450 436/522/450 435/499/450
f 437/503/453 436/522/453 421/498/453
f 415/496/454 430/506/454 429/500/454
f 438/504/455 437/503/455 422/495/455
f 416/505/456 431/515/456 430/506/456
f 424/507/457 439/517/457 438/504/457
f 432/508/458 431/515/458 416/505/458
f 440/509/459 439/517/459 424/507/459
f 418/510/460 433/518/460 432/508/460
f 426/511/461 441/519/461 440/509/461
f 434/512/462 433/518/462 418/510/462
f 442/513/463 441/519/463 426/511/463
f 420/491/464 435/499/464 434/512/464
f 447/514/465 446/540/465 431/515/465
f 455/516/466 454/541/466 439/517/466
f 433/518/467 448/544/467 447/514/467
f 441/519/468 456/545/468 455/516/468
f 449/520/469 448/544/469 433/518/469
f 457/521/470 456/545/470 441/519/470
f 435/499/471 450/523/471 449/520/471
f 443/497/472 458/527/472 457/521/472
f 436/522/473 451/531/473 450/523/473
f 452/528/476 451/531/476 436/522/476
f 445/529/477 444/524/477 429/500/477
f 453/530/478 452/528/478 437/503/478
f 431/515/479 446/540/479 445/529/479
f 439/517/480 454/541/480 453/530/480
f 451/531/481 466/551/481 465/532/481
f 467/537/484 466/551/484 451/531/484
f 460/538/485 459/533/485 444/524/485
f 468/539/486 467/537/486 452/528/486
f 446/540/487 461/554/487 460/538/487
f 454/541/488 469/548/488 468/539/488
f 462/542/489 461/554/489 446/540/489
f 470/543/490 469/548/490 454/541/490
f 448/544/491 463/549/491 462/542/491
f 456/545/492 471/550/492 470/543/492
f 464/546/493 463/549/493 448/544/493
f 472/547/494 471/550/494 456/545/494
f 450/523/495 465/532/495 464/546/495
f 473/536/496 472/547/496 457/521/496
f 479/4/497 6/6/497 469/548/497
f 463/549/498 2/7/498 476/1/498
f 471/550/499 480/10/499 479/4/499
f 464/546/500 477/11/500 2/7/500
f 472/547/501 481/14/501 480/10/501
f 465/532/502 3/15/502 477/11/502
f 473/536/503 482/18/503 481/14/503
f 466/551/504 4/20/504 3/15/504
f 5/26/507 4/20/507 466/551/507
f 475/27/508 474/21/508 459/533/508
f 478/29/509 5/26/509 467/537/509
f 461/554/510 1/3/510 475/27/510
f 6/6/511 478/29/511 468/539/511
f 462/542/512 476/1/512 1/3/512
